<?xml version="1.0" encoding="UTF-8"?>
<svg version="1.1" xmlns="http://www.w3.org/2000/svg" width="522" height="522">
<path d="M0 0 C0.73798828 0.32081543 1.47597656 0.64163086 2.23632812 0.97216797 C26.72913127 11.74659366 48.92761214 26.82928603 68.6484375 44.87109375 C70.64459463 46.67824597 72.68076365 48.40357146 74.75 50.125 C122.4897635 92.00535591 149.89706012 157.42199013 154.80371094 219.7434082 C155.17157781 225.84661239 155.24456563 231.94956745 155.25 238.0625 C155.25101212 239.10022049 155.25101212 239.10022049 155.25204468 240.15890503 C155.15486454 303.66294591 131.72883344 366.86532705 88.28125 413.53125 C86.38769392 415.58044082 84.5940214 417.6674028 82.8125 419.8125 C40.51843475 468.1204067 -25.65660844 495.24890731 -88.61499023 499.80810547 C-137.92913807 502.60370015 -186.44351473 492.47912913 -230 469 C-230.64163086 468.66178223 -231.28326172 468.32356445 -231.94433594 467.97509766 C-250.20471484 458.32395298 -266.42717841 446.02485056 -281.65625 432.12109375 C-283.79924312 430.18168497 -285.98344638 428.30670701 -288.1875 426.4375 C-291.46719074 423.57677175 -294.30782622 420.51382153 -297.11328125 417.19140625 C-298.42687072 415.66568432 -299.78229952 414.17541402 -301.16796875 412.71484375 C-346.01043282 365.3851957 -368.33536271 298.03051258 -367.18359375 233.54296875 C-366.40448481 206.26447732 -361.88066391 179.81901921 -353 154 C-352.55382324 152.69071533 -352.55382324 152.69071533 -352.09863281 151.35498047 C-340.63368975 118.24298545 -322.52387497 88.00050921 -298.40234375 62.578125 C-296.66013931 60.70844218 -295.02747867 58.84500903 -293.4140625 56.87109375 C-291.49644711 54.59043467 -289.70921337 52.70813554 -287.4375 50.8125 C-285.05763073 48.79401829 -282.74370744 46.75564654 -280.484375 44.6015625 C-261.736276 26.74373635 -239.4407801 12.84742307 -216 2 C-215.24235352 1.64341309 -214.48470703 1.28682617 -213.70410156 0.91943359 C-146.71671641 -30.32599656 -67.36655177 -29.41938956 0 0 Z " fill="#373435" transform="translate(367,22)"/>
<path d="M0 0 C5.9941718 1.07895092 9.9449611 4.8717258 13.6796875 9.45703125 C18.63720541 16.67892896 21.25137253 25.08433571 23.125 33.5625 C23.33125 34.45453125 23.5375 35.3465625 23.75 36.265625 C27.590471 56.21473823 26.27836649 76.25576702 17.125 94.5625 C16.95829727 97.60423894 16.95829727 97.60423894 17.125 100.5625 C18.67707591 102.11457591 20.14465302 101.69035377 22.30497742 101.69380188 C23.20640976 101.69781006 24.1078421 101.70181824 25.03659058 101.70594788 C26.5318779 101.7051548 26.5318779 101.7051548 28.05737305 101.7043457 C29.10126694 101.70782013 30.14516083 101.71129456 31.22068787 101.71487427 C33.49661916 101.7222474 35.77255773 101.72758444 38.04849815 101.73116493 C41.65021529 101.73830802 45.25179441 101.75395909 48.85346985 101.77250671 C59.09719935 101.82507264 69.34085539 101.87295046 79.5847168 101.88842773 C85.84297704 101.89850514 92.10089374 101.92782798 98.35901833 101.96974754 C100.74599421 101.98206984 103.13301861 101.98717657 105.52002525 101.98494911 C108.8622746 101.98259825 112.20353808 102.0047491 115.5456543 102.0324707 C116.53239136 102.02586929 117.51912842 102.01926788 118.5357666 102.01246643 C125.37123244 102.10555139 128.85640033 103.31719202 133.76953125 108.1953125 C137.09987915 112.45013825 138.54299326 114.80945802 138.47265625 120.3359375 C137.64761584 125.6199042 134.29083932 129.50511085 130.4375 133 C126.77212952 135.47660168 124.7490734 135.69691746 120.33007812 135.73608398 C118.50808899 135.75631874 118.50808899 135.75631874 116.64929199 135.77696228 C114.67273621 135.79261986 114.67273621 135.79261986 112.65625 135.80859375 C111.29625646 135.82409059 109.93627086 135.84029976 108.57629395 135.85719299 C102.79363228 135.92801114 97.01089598 135.98817208 91.22802734 136.03930664 C87.69188176 136.07105411 84.15595148 136.11231498 80.61997986 136.15950203 C78.61362963 136.18335738 76.60715914 136.19627906 74.60070801 136.20909119 C73.38604858 136.22573318 72.17138916 136.24237518 70.91992188 136.25952148 C69.31014465 136.27498268 69.31014465 136.27498268 67.66784668 136.29075623 C64.95764814 136.31120817 64.95764814 136.31120817 63.125 138.5625 C63.41483269 141.86933466 63.41483269 141.86933466 65.125 144.5625 C66.77038275 144.66457648 68.42006896 144.69819748 70.06860352 144.7043457 C71.65143883 144.71489738 71.65143883 144.71489738 73.26625061 144.72566223 C74.99264015 144.73190865 74.99264015 144.73190865 76.75390625 144.73828125 C79.17513879 144.76149159 81.59636276 144.7856094 84.01757812 144.81054688 C87.84681821 144.84559208 91.67574643 144.87495866 95.50512695 144.88842773 C99.19260914 144.90394845 102.87916901 144.94420294 106.56640625 144.98828125 C107.70316299 144.98637283 108.83991974 144.98446442 110.01112366 144.98249817 C117.50389591 145.09719615 123.39872567 145.9371456 129 151.38671875 C132.02413355 156.39543994 133.51525593 160.73525706 132.125 166.5625 C129.32063357 172.6019376 126.35856098 176.03738028 120.125 178.5625 C116.95103208 179.00176308 113.80640093 179.02699345 110.60546875 179.0390625 C109.25670403 179.06243179 109.25670403 179.06243179 107.88069153 179.08627319 C105.02463568 179.13360179 102.16882286 179.16150936 99.3125 179.1875 C96.43849346 179.2239679 93.5646255 179.26450552 90.69075012 179.31015015 C88.9057478 179.33742449 87.12064322 179.35875495 85.335495 179.37368774 C81.41491854 179.03516777 81.41491854 179.03516777 78.125 180.5625 C78.08419217 182.56208364 78.08245644 184.56295254 78.125 186.5625 C81.28689973 188.14344986 84.6949443 187.71966897 88.16796875 187.73828125 C89.81576781 187.76149202 91.46355429 187.78560986 93.11132812 187.81054688 C95.70719663 187.84556331 98.30260646 187.87494863 100.89868164 187.88842773 C103.40567735 187.90399021 105.91133151 187.94426288 108.41796875 187.98828125 C109.18489548 187.98637283 109.9518222 187.98446442 110.74198914 187.98249817 C117.44482373 188.13313659 121.79882518 190.17667967 126.5625 195.0625 C128.87080705 200.2331078 128.88288897 204.98933665 128.125 210.5625 C125.96562362 215.04120656 123.19547061 217.74448188 119.125 220.5625 C115.70133019 221.70372327 112.94936236 221.73828306 109.33984375 221.80859375 C107.99152948 221.84151223 106.64322235 221.8747242 105.29492188 221.90820312 C103.17281684 221.95573316 101.0507448 222.00021652 98.9284668 222.03930664 C96.87779897 222.07892963 94.82769998 222.13047164 92.77734375 222.18359375 C91.55007568 222.2086499 90.32280762 222.23370605 89.05834961 222.25952148 C86.00362777 222.26339487 86.00362777 222.26339487 84.125 224.5625 C84.44541397 227.16530568 84.44541397 227.16530568 85.125 229.5625 C87.043125 229.61857422 87.043125 229.61857422 89 229.67578125 C90.7083604 229.74148742 92.41669247 229.80793311 94.125 229.875 C95.38376953 229.90883789 95.38376953 229.90883789 96.66796875 229.94335938 C103.11268154 230.21813395 109.05521765 230.99949386 114.18359375 235.28125 C114.63863281 235.8690625 115.09367188 236.456875 115.5625 237.0625 C116.03558594 237.6503125 116.50867188 238.238125 116.99609375 238.84375 C119.76052186 243.05256789 119.79899672 247.71912819 119.125 252.5625 C117.00334357 258.21364095 114.06949537 261.04718802 108.59597206 263.70169067 C103.79015395 265.37588728 98.86258408 265.11610635 93.82495117 265.08007812 C92.00627785 265.09059204 92.00627785 265.09059204 90.15086365 265.10131836 C86.84456355 265.11584925 83.53927241 265.11252421 80.23303008 265.09980202 C76.75749803 265.08961637 73.28200667 265.09908368 69.80647278 265.10534668 C63.96847882 265.11260993 58.13068771 265.10307343 52.29272461 265.08398438 C45.5681859 265.06224858 38.84413301 265.06924798 32.1196062 265.09129 C26.32394992 265.10951868 20.52843884 265.11196519 14.73276311 265.10153532 C11.28115955 265.09533719 7.82978326 265.09436136 4.37819481 265.10768127 C0.5230197 265.12152079 -3.33162419 265.10226884 -7.18676758 265.08007812 C-8.31284424 265.08817505 -9.4389209 265.09627197 -10.59912109 265.10461426 C-22.6804629 264.97651096 -33.49222986 260.94527014 -42.125 252.3125 C-44.72829028 248.22161528 -46.77677225 243.93380781 -48.875 239.5625 C-59.27 239.0675 -59.27 239.0675 -69.875 238.5625 C-69.875 206.8825 -69.875 175.2025 -69.875 142.5625 C-65.255 140.5825 -60.635 138.6025 -55.875 136.5625 C-28.58387875 117.94032315 -18.15796332 79.15169725 -11.875 48.5625 C-9.42082577 35.33702988 -7.46111785 22.06952356 -7.34375 8.6015625 C-6.62458653 3.93898598 -4.73838927 0.92707616 0 0 Z " fill="#373435" transform="translate(201.875,161.4375)"/>
<path d="M0 0 C10.34756732 3.91772058 16.31929005 12.59255387 20.875 22.2734375 C24.57390675 31.23814901 26.76118011 40.40240588 28 50 C28.16822266 51.2684375 28.16822266 51.2684375 28.33984375 52.5625 C28.65293788 55.37605823 28.84605462 58.17300306 29 61 C29.03931641 61.64710938 29.07863281 62.29421875 29.11914062 62.9609375 C29.76497168 74.91428513 27.95242747 84.74157022 24 96 C23.3310667 97.99924303 22.66402128 99.99912015 22 102 C23.24312958 101.98667633 24.48625916 101.97335266 25.76705933 101.95962524 C37.50731009 101.83776515 49.2474318 101.74794148 60.98817253 101.68912697 C67.02363408 101.65787264 73.05858328 101.61550639 79.09375 101.54736328 C84.92283254 101.48196222 90.75142363 101.44624962 96.58084488 101.43073654 C98.79994564 101.41968754 101.01902083 101.39811122 103.23791122 101.36561966 C124.22415829 101.07065798 124.22415829 101.07065798 131.2817688 106.31137085 C137.52732022 112.44932259 141.26802578 118.38015238 141.375 127.3125 C141.17720357 137.07045734 137.6299596 141.83475662 130.8046875 148.53125 C129 150 129 150 127 150 C127.49371094 150.75925781 127.98742187 151.51851562 128.49609375 152.30078125 C129.13675781 153.29464844 129.77742188 154.28851563 130.4375 155.3125 C131.07558594 156.29863281 131.71367187 157.28476562 132.37109375 158.30078125 C135.77375349 163.93924139 135.56726489 169.58431403 135 176 C133.33431704 182.19634061 129.80511053 187.73031607 125 192 C124.34 192 123.68 192 123 192 C123.48210937 192.65226563 123.96421875 193.30453125 124.4609375 193.9765625 C130.21077825 201.93246459 133.15697974 208.05583234 132 218 C129.85813133 226.60595136 125.2899297 232.14004687 118 237 C117.01 237 116.02 237 115 237 C115.42152344 237.61488281 115.84304688 238.22976563 116.27734375 238.86328125 C116.82519531 239.67152344 117.37304688 240.47976563 117.9375 241.3125 C118.48277344 242.11300781 119.02804687 242.91351563 119.58984375 243.73828125 C123.21579773 249.55386949 122.61488533 256.3917496 122 263 C119.92609984 269.98430055 116.08001254 275.06589504 110 279 C102.60297378 282.86919403 95.96895226 283.57829904 87.7199707 283.51757812 C85.93975777 283.52809204 85.93975777 283.52809204 84.12358093 283.53881836 C80.89577051 283.55331682 77.66862596 283.55004347 74.44082665 283.53730202 C71.03924815 283.52708567 67.63771024 283.53659249 64.23612976 283.54284668 C58.52102833 283.55010318 52.80613431 283.54059346 47.09106445 283.52148438 C40.52220167 283.49977146 33.95383672 283.506734 27.38498622 283.52879 C21.71151827 283.5470641 16.03819845 283.54944275 10.36471051 283.53903532 C6.99120398 283.53285888 3.61811378 283.53341334 0.24459267 283.54518127 C-34.01873299 283.63844836 -34.01873299 283.63844836 -49 273 C-49.9075 272.401875 -50.815 271.80375 -51.75 271.1875 C-55.1144401 267.91651657 -57.78317144 264.13655638 -60 260 C-60 259.01 -60 258.02 -60 257 C-65.28 257 -70.56 257 -76 257 C-76.33 259.31 -76.66 261.62 -77 264 C-79.18991597 266.58297781 -80.96831688 268.48415844 -84 270 C-86.99205589 270.1359514 -89.95961871 270.21279625 -92.953125 270.23828125 C-93.84610291 270.246353 -94.73908081 270.25442474 -95.65911865 270.26274109 C-97.55218563 270.2765857 -99.44527762 270.28730616 -101.33837891 270.29516602 C-104.2247701 270.3123498 -107.11000722 270.35622842 -109.99609375 270.40039062 C-111.83592908 270.4105202 -113.67577415 270.41903547 -115.515625 270.42578125 C-116.37520813 270.44328934 -117.23479126 270.46079742 -118.12042236 270.47883606 C-123.52934193 270.45939468 -126.82028945 269.77310354 -131 266 C-132.73996065 262.47398019 -133.25527002 259.60997892 -133.28088379 255.7003479 C-133.29230408 254.65182144 -133.30372437 253.60329498 -133.31549072 252.522995 C-133.31772644 251.38312637 -133.31996216 250.24325775 -133.32226562 249.06884766 C-133.33219543 247.86016525 -133.34212524 246.65148285 -133.35235596 245.40617371 C-133.37652354 242.09818943 -133.39147552 238.79045713 -133.40037727 235.48241472 C-133.40625185 233.41340971 -133.41446378 231.34442655 -133.42338562 229.27543259 C-133.45070896 222.79505542 -133.47005649 216.31472853 -133.4777894 209.83429778 C-133.48675168 202.36591277 -133.5218614 194.8982597 -133.57979059 187.43009722 C-133.62307619 181.64817876 -133.64320058 175.86646589 -133.64587164 170.08438718 C-133.64796368 166.63489609 -133.65968893 163.18609426 -133.69551086 159.73677444 C-133.73471125 155.88759164 -133.7258747 152.03931877 -133.71289062 148.18994141 C-133.73132019 147.05412125 -133.74974976 145.91830109 -133.76873779 144.74806213 C-133.70183848 138.41649019 -133.03193029 134.75688194 -128.48274994 130.20035362 C-124.79541689 127.21528954 -120.75150422 127.81950766 -116.23046875 127.796875 C-115.35731522 127.79117493 -114.48416168 127.78547485 -113.58454895 127.77960205 C-111.73435683 127.77014655 -109.88414782 127.76361589 -108.03393555 127.75976562 C-105.20917156 127.75007435 -102.38513956 127.71906245 -99.56054688 127.6875 C-97.76302515 127.68096848 -95.96549823 127.67571859 -94.16796875 127.671875 C-93.32509811 127.6595282 -92.48222748 127.6471814 -91.61381531 127.63446045 C-86.89197532 127.65230775 -83.85202957 127.97285408 -80 131 C-76.03680601 135.07030734 -76.03680601 135.07030734 -75.89453125 138.6640625 C-75.94673828 139.82035156 -75.94673828 139.82035156 -76 141 C-55.26039121 132.05143783 -46.08612637 113.69346763 -38.04980469 93.62744141 C-33.1952514 81.02847772 -29.77720961 68.19904012 -27 55 C-26.76821045 53.93265625 -26.76821045 53.93265625 -26.53173828 52.84375 C-24.27717337 42.29370497 -23.39744807 31.77003363 -22.90942383 20.99536133 C-22.45411859 13.14089967 -21.40793555 8.08337026 -15.375 2.625 C-10.41652363 -0.76764173 -5.89647353 -0.77906775 0 0 Z M-11.1328125 10.84765625 C-13.83051366 15.40214335 -13.75888909 19.60159438 -14 24.8125 C-16.44911533 61.91885444 -25.32868049 104.89891739 -50 134 C-50.7425 135.03125 -51.485 136.0625 -52.25 137.125 C-58.98088494 144.16183426 -67.01603907 147.40641563 -76 151 C-76 182.68 -76 214.36 -76 247 C-65.605 247.495 -65.605 247.495 -55 248 C-51.59810855 252.81124648 -50.00456861 255.77425353 -48 261 C-43.00443965 267.48920779 -33.86187262 271.37438135 -26 273 C-24.26505794 273.09552945 -22.52691882 273.13905663 -20.78936768 273.14717102 C-19.73524689 273.15432632 -18.6811261 273.16148163 -17.59506226 273.16885376 C-16.44381866 273.17154266 -15.29257507 273.17423157 -14.10644531 273.17700195 C-12.88976166 273.18357315 -11.673078 273.19014435 -10.41952515 273.19691467 C-6.38905592 273.21664187 -2.35862644 273.22831252 1.671875 273.23828125 C3.06222808 273.24233067 4.45258097 273.24644764 5.84293365 273.25063133 C12.37617335 273.26967232 18.90940182 273.28390555 25.44266391 273.2922433 C32.97142397 273.30201154 40.4998897 273.32832453 48.02854609 273.36874419 C53.85630688 273.39895305 59.6839835 273.41371668 65.51182103 273.41702431 C68.98859185 273.41936939 72.46504784 273.4282584 75.94173431 273.45348549 C79.82420665 273.481203 83.70629485 273.47692047 87.58886719 273.4699707 C89.30358719 273.48918579 89.30358719 273.48918579 91.052948 273.50878906 C98.502048 273.46023905 104.30766244 272.59233675 109.875 267.17578125 C112.92422972 262.12549452 114.14206962 257.87954359 113 252 C111.21610294 247.17968241 108.31458358 243.77366088 104 241 C98.73922153 238.79725073 93.74266324 238.57804807 88.125 238.375 C87.24585938 238.33632813 86.36671875 238.29765625 85.4609375 238.2578125 C83.30761207 238.16418966 81.15383586 238.08103541 79 238 C78.375 235.625 78.375 235.625 78 233 C80.80414762 230.19585238 82.62349457 230.7314354 86.546875 230.69140625 C87.8802124 230.66623 89.21354563 230.64083223 90.546875 230.61523438 C92.64451864 230.58659008 94.74208926 230.56257116 96.83984375 230.54370117 C98.8675858 230.52190007 100.89444368 230.48243603 102.921875 230.44140625 C104.13456055 230.42795166 105.34724609 230.41449707 106.59667969 230.40063477 C110.98360898 229.88421074 114.39610383 228.49722374 117.64453125 225.46484375 C122.38460426 219.26628674 122.87470724 214.77296665 122 207 C120.34604378 202.90788419 118.18077046 200.71661559 114.43310547 198.44213867 C110.24340774 196.6821796 106.88045435 196.54235351 102.390625 196.5234375 C101.58260437 196.50785797 100.77458374 196.49227844 99.94207764 196.47622681 C97.37806066 196.42895168 94.81431314 196.40101407 92.25 196.375 C89.6715932 196.33848818 87.09333851 196.29790297 84.51507568 196.25234985 C82.91478411 196.22515528 81.31438076 196.20379003 79.71392822 196.18881226 C74.22132404 196.11066202 74.22132404 196.11066202 72 195 C71.95745644 193.00045254 71.95919217 190.99958364 72 189 C74.11845217 186.88154783 78.8837497 187.83827946 81.8203125 187.82421875 C83.65365713 187.8010057 85.48699048 187.77688778 87.3203125 187.75195312 C90.21687184 187.71693385 93.11302106 187.68755576 96.00976562 187.67407227 C98.80129221 187.65852658 101.59160845 187.61825743 104.3828125 187.57421875 C105.2403714 187.57612717 106.0979303 187.57803558 106.98147583 187.58000183 C113.50400592 187.44836144 118.08486339 185.99201933 122.77734375 181.17578125 C125.91005505 176.14445704 127.25699866 171.90377242 126 166 C123.82434216 160.36125376 120.98557261 157.53308045 115.48895264 154.86195374 C110.61371846 153.17360248 105.58417677 153.43820473 100.4765625 153.4609375 C99.294039 153.44914459 98.1115155 153.43735168 96.89315796 153.42520142 C93.13696953 153.39004233 89.38133938 153.38077676 85.625 153.375 C81.84740404 153.35867794 78.07005694 153.33672852 74.29257202 153.30337524 C71.94662923 153.28368033 69.60057169 153.2744173 67.25454712 153.27645874 C66.19939911 153.26949982 65.1442511 153.26254089 64.05712891 153.25537109 C62.6610289 153.25348282 62.6610289 153.25348282 61.23672485 153.2515564 C59 153 59 153 57 151 C57.55555556 146.44444444 57.55555556 146.44444444 59 145 C60.8704296 144.89748574 62.74469317 144.86428387 64.61791992 144.8581543 C66.4206562 144.84760262 66.4206562 144.84760262 68.2598114 144.83683777 C69.57012833 144.83267349 70.88044525 144.82850922 72.23046875 144.82421875 C73.5823088 144.81379815 74.93414147 144.80237622 76.28596497 144.78999329 C82.03736918 144.73749835 87.78864488 144.68959364 93.5402832 144.67407227 C97.05599507 144.66396171 100.57110079 144.63455439 104.08657265 144.59275246 C106.07278793 144.57451876 108.0591591 144.57708636 110.04545593 144.58000183 C118.84482877 144.53158143 118.84482877 144.53158143 126 140 C130.34192861 135.17563488 132.51029135 131.68262725 132.3125 125.01953125 C131.38752958 119.04190994 126.51852227 115.43800608 122 112 C119.66135227 110.83067614 118.27252251 110.8654437 115.66612244 110.84851074 C114.75608963 110.84016708 113.84605682 110.83182343 112.90844727 110.82322693 C111.40677002 110.8169503 111.40677002 110.8169503 109.87475586 110.81054688 C108.82268448 110.80225357 107.7706131 110.79396027 106.68666077 110.78541565 C104.39710448 110.76798893 102.10753009 110.75282934 99.81794548 110.73963928 C96.20073073 110.71866818 92.58360723 110.69164206 88.96644592 110.66296387 C79.98327131 110.593015 71.00003208 110.53365196 62.01678467 110.47393799 C54.42870293 110.4231051 46.84067038 110.36831258 39.25265694 110.30812073 C35.67788761 110.28144065 32.10311398 110.26069088 28.52830505 110.2401123 C26.35081766 110.2235176 24.17333236 110.2066465 21.99584961 110.18945312 C20.99270721 110.18526871 19.98956482 110.18108429 18.95602417 110.17677307 C18.04881119 110.16842941 17.14159821 110.16008575 16.20689392 110.15148926 C15.41398421 110.14633553 14.6210745 110.14118179 13.80413723 110.13587189 C12 110 12 110 11 109 C10.50169806 103.71960684 11.92778558 99.84902474 13.875 95.0625 C17.52843302 85.87647584 19.36434676 78.07732308 19.3125 68.125 C19.30758545 67.01600342 19.3026709 65.90700684 19.29760742 64.7644043 C19.05023426 47.25419042 16.43474102 26.27177559 3.35546875 13.37890625 C0.32999694 10.78038667 -1.90967065 9.14221687 -5.875 8.625 C-9.07047125 8.71256066 -9.07047125 8.71256066 -11.1328125 10.84765625 Z " fill="#F8F8F8" transform="translate(208,153)"/>
<path d="M0 0 C3.34281053 2.39294087 6.23811232 4.93952987 9 8 C9.46921875 8.46535156 9.9384375 8.93070313 10.421875 9.41015625 C20.34792222 19.82227279 22.50166073 32.56348743 22.27734375 46.34375 C21.74505782 59.35165296 15.41862285 72.04701694 6 81 C-6.0674648 91.17711512 -20.39586297 95.21907321 -36 94 C-48.69121991 91.51563384 -60.91316896 85.26539543 -69 75 C-77.78532722 61.87514623 -81.93329148 48.81215202 -79.5390625 32.9453125 C-76.4375534 18.89730068 -68.61060886 7.16100023 -56.625 -0.875 C-54.76977359 -1.9514894 -52.89500828 -2.99519252 -51 -4 C-50.21753906 -4.43441406 -49.43507813 -4.86882812 -48.62890625 -5.31640625 C-33.01585286 -12.48592037 -13.945954 -8.78162846 0 0 Z " fill="#393637" transform="translate(344,84)"/>
<path d="M0 0 C0.80103149 0.00202423 1.60206299 0.00404846 2.42736816 0.00613403 C3.24483521 0.00517731 4.06230225 0.00422058 4.90454102 0.00323486 C6.63627194 0.00255308 8.3680054 0.00440724 10.09973145 0.00857544 C12.75978298 0.01392374 15.41966566 0.00863041 18.07971191 0.00222778 C19.75809771 0.00288857 21.43648339 0.00416973 23.11486816 0.00613403 C23.91589966 0.0041098 24.71693115 0.00208557 25.54223633 0 C31.15616738 0.02399575 31.15616738 0.02399575 32.27111816 1.13894653 C32.37133378 2.69050585 32.40187475 4.24661724 32.40483093 5.80140686 C32.40909592 6.80958969 32.4133609 7.81777252 32.41775513 8.85650635 C32.41730194 9.9718576 32.41684875 11.08720886 32.41638184 12.23635864 C32.41974045 13.40372055 32.42309906 14.57108246 32.42655945 15.77381897 C32.43445494 18.98454551 32.43773838 22.19523332 32.43837523 25.40596843 C32.43932277 28.0825315 32.44299928 30.75908831 32.44654733 33.43564898 C32.45469932 39.74845384 32.45713089 46.06124443 32.4564209 52.37405396 C32.45581994 58.89456895 32.46637367 65.41500126 32.48216456 71.93549532 C32.49522316 77.52616261 32.5006055 83.11680282 32.49996549 88.70748526 C32.49971 92.04986667 32.50258903 95.39217466 32.51314354 98.73454094 C32.52288628 102.46047804 32.52008807 106.18619969 32.51403809 109.91213989 C32.51965759 111.02546692 32.5252771 112.13879395 32.53106689 113.28585815 C32.52687241 114.29686081 32.52267792 115.30786346 32.51835632 116.34950256 C32.51890109 117.23128142 32.51944586 118.11306028 32.52000713 119.02155972 C32.27111816 121.13894653 32.27111816 121.13894653 30.27111816 123.13894653 C27.64171621 123.33860026 25.11991653 123.41878763 22.48986816 123.40457153 C21.72057983 123.40648499 20.9512915 123.40839844 20.15869141 123.41036987 C18.53128737 123.41173161 16.90387246 123.40803592 15.27648926 123.39968872 C12.78096186 123.38898874 10.28615434 123.39958405 7.79064941 123.41238403 C6.21122074 123.41106244 4.63179251 123.40850004 3.05236816 123.40457153 C2.30338257 123.40862 1.55439697 123.41266846 0.78271484 123.4168396 C-4.49895941 123.36886896 -4.49895941 123.36886896 -6.72888184 121.13894653 C-6.97777081 119.02155972 -6.97777081 119.02155972 -6.97612 116.34950256 C-6.98031448 115.33849991 -6.98450897 114.32749725 -6.98883057 113.28585815 C-6.98321106 112.17253113 -6.97759155 111.0592041 -6.97180176 109.91213989 C-6.9737001 108.74302567 -6.97559845 107.57391144 -6.97755432 106.36936951 C-6.98062999 103.15871682 -6.9747398 99.94823279 -6.96460128 96.73759913 C-6.95583245 93.38282215 -6.95757798 90.02804966 -6.95796204 86.67326355 C-6.95702497 81.0399747 -6.94833466 75.40673967 -6.93469238 69.77346802 C-6.91895879 63.25236499 -6.91369451 56.73132089 -6.91442794 50.21020025 C-6.91503741 43.94605433 -6.90993987 37.68192769 -6.90163612 31.41778755 C-6.89809761 28.74754244 -6.89627207 26.07730415 -6.89574242 23.40705681 C-6.89358645 19.68346018 -6.88485861 15.95993916 -6.87414551 12.23635864 C-6.87459869 11.12100739 -6.87505188 10.00565613 -6.8755188 8.85650635 C-6.86912132 7.3442321 -6.86912132 7.3442321 -6.8625946 5.80140686 C-6.86091876 4.92000503 -6.85924292 4.03860319 -6.85751629 3.13049221 C-6.58339231 -1.11355296 -3.55474073 0.0151941 0 0 Z " fill="#3B393A" transform="translate(90.7288818359375,290.8610534667969)"/>
<path d="M0 0 C3.34281053 2.39294087 6.23811232 4.93952987 9 8 C9.46921875 8.46535156 9.9384375 8.93070313 10.421875 9.41015625 C20.34792222 19.82227279 22.50166073 32.56348743 22.27734375 46.34375 C21.74505782 59.35165296 15.41862285 72.04701694 6 81 C-6.0674648 91.17711512 -20.39586297 95.21907321 -36 94 C-48.69121991 91.51563384 -60.91316896 85.26539543 -69 75 C-77.78532722 61.87514623 -81.93329148 48.81215202 -79.5390625 32.9453125 C-76.4375534 18.89730068 -68.61060886 7.16100023 -56.625 -0.875 C-54.76977359 -1.9514894 -52.89500828 -2.99519252 -51 -4 C-50.21753906 -4.43441406 -49.43507813 -4.86882812 -48.62890625 -5.31640625 C-33.01585286 -12.48592037 -13.945954 -8.78162846 0 0 Z M-60.74609375 14.9453125 C-69.76276458 26.41289884 -71.36207092 37.72070708 -70 52 C-67.2695629 63.28907178 -60.31749643 72.2425399 -50.65234375 78.4921875 C-40.01837997 84.53741581 -28.63602352 86.01242677 -16.6875 82.875 C-5.62344416 78.94193032 2.87510026 72.4787236 8.3125 62.0625 C13.34983342 51.19529271 15.28060987 39.82555624 11.375 28.125 C9.28477059 23.1231177 6.57317608 19.0553396 3 15 C2.47535156 14.38253906 1.95070313 13.76507813 1.41015625 13.12890625 C-5.01167218 6.10267044 -14.53648239 1.2303527 -24.1015625 0.62890625 C-38.74322522 0.23065818 -50.64480235 3.69152477 -60.74609375 14.9453125 Z " fill="#F8F8F8" transform="translate(344,84)"/>
<path d="M0 0 C2.23413086 0.48974609 2.23413086 0.48974609 4.23413086 2.48974609 C4.61458463 5.38986979 4.61341976 6.91582319 2.98373413 9.38179016 C2.39782501 9.97469345 1.81191589 10.56759674 1.20825195 11.1784668 C0.21624283 12.19895866 0.21624283 12.19895866 -0.79580688 13.24006653 C-1.52069305 13.9579686 -2.24557922 14.67587067 -2.99243164 15.41552734 C-3.73286713 16.16311813 -4.47330261 16.91070892 -5.23617554 17.68095398 C-6.80541868 19.25798056 -8.3810964 20.82862648 -9.96264648 22.39331055 C-12.38019596 24.79165769 -14.76702831 27.21782965 -17.15258789 29.64794922 C-18.68076387 31.17641558 -20.2106567 32.70316775 -21.74243164 34.22802734 C-22.45517242 34.95605057 -23.16791321 35.68407379 -23.9022522 36.43415833 C-28.92337579 41.33950476 -28.92337579 41.33950476 -33.08032227 42.08081055 C-36.89055633 41.24221267 -39.03416471 39.09895237 -41.64086914 36.36474609 C-42.13844727 35.89037109 -42.63602539 35.41599609 -43.14868164 34.92724609 C-45.63733552 32.39757045 -46.7205282 30.77923059 -47.27368164 27.24755859 C-47.02231445 25.88244141 -47.02231445 25.88244141 -46.76586914 24.48974609 C-43.76586914 22.48974609 -43.76586914 22.48974609 -41.78149414 22.67333984 C-39.4469208 23.61893253 -38.23070314 24.7204916 -36.51586914 26.55224609 C-35.99508789 27.10009766 -35.47430664 27.64794922 -34.93774414 28.21240234 C-34.55102539 28.63392578 -34.16430664 29.05544922 -33.76586914 29.48974609 C-29.49066477 27.85452075 -26.73438702 24.62277033 -23.64477539 21.38818359 C-22.45054629 20.1638034 -21.2558712 18.93985809 -20.06079102 17.71630859 C-18.18813119 15.78778153 -16.31963908 13.85564321 -14.45898438 11.91552734 C-12.65701815 10.04108325 -10.83977794 8.18259668 -9.01977539 6.32568359 C-8.46753799 5.74136566 -7.9153006 5.15704773 -7.34632874 4.55502319 C-4.96367453 2.14149162 -3.39538179 0.60121245 0 0 Z " fill="#FAFAFA" transform="translate(336.765869140625,105.51025390625)"/>
<path d="M0 0 C2 2 2 2 2.4375 4.4375 C2.2209375 5.7059375 2.2209375 5.7059375 2 7 C-1.58026488 9.51871304 -5.43426029 11.10585126 -9.5 12.6875 C-11.15515625 13.34298828 -11.15515625 13.34298828 -12.84375 14.01171875 C-15.82668503 14.94573182 -17.91111256 15.37523457 -21 15 C-23 13 -23 13 -23.375 10.5625 C-23 8 -23 8 -21.375 6.5078125 C-18.55496976 4.71746435 -15.73915005 3.52113866 -12.625 2.3125 C-10.97371094 1.65701172 -10.97371094 1.65701172 -9.2890625 0.98828125 C-5.95655311 -0.01305471 -3.45450168 -0.3434591 0 0 Z " fill="#F7F7F7" transform="translate(397,91)"/>
<path d="M0 0 C0.66 0.66 1.32 1.32 2 2 C1.984375 4.953125 1.984375 4.953125 1 8 C-1.546875 9.609375 -1.546875 9.609375 -4.75 10.75 C-6.32007813 11.33007812 -6.32007813 11.33007812 -7.921875 11.921875 C-9.44554687 12.45554688 -9.44554687 12.45554688 -11 13 C-12.3303125 13.55880859 -12.3303125 13.55880859 -13.6875 14.12890625 C-16.57332122 15.2159639 -18.94199498 15.20850034 -22 15 C-23 14 -23 14 -23.3125 11.125 C-23 8 -23 8 -21.37890625 6.47265625 C-18.55197089 4.72264865 -15.72485689 3.51559131 -12.625 2.3125 C-10.97371094 1.65701172 -10.97371094 1.65701172 -9.2890625 0.98828125 C-5.95655311 -0.01305471 -3.45450168 -0.3434591 0 0 Z " fill="#F7F7F7" transform="translate(255,147)"/>
<path d="M0 0 C5.07667582 0.35680706 9.54602525 1.71214877 14.3125 3.4375 C16.13201172 4.08525391 16.13201172 4.08525391 17.98828125 4.74609375 C21 6 21 6 23 8 C23.25 10.5 23.25 10.5 23 13 C22.34 13.66 21.68 14.32 21 15 C13.17842697 14.8738456 3.68330523 12.68330523 -2 7 C-2.25 4.5 -2.25 4.5 -2 2 C-1.34 1.34 -0.68 0.68 0 0 Z " fill="#F8F7F8" transform="translate(376,147)"/>
<path d="M0 0 C5.07667582 0.35680706 9.54602525 1.71214877 14.3125 3.4375 C16.13201172 4.08525391 16.13201172 4.08525391 17.98828125 4.74609375 C21 6 21 6 23 8 C23.25 10.5 23.25 10.5 23 13 C22.34 13.66 21.68 14.32 21 15 C13.17842697 14.8738456 3.68330523 12.68330523 -2 7 C-2.25 4.5 -2.25 4.5 -2 2 C-1.34 1.34 -0.68 0.68 0 0 Z " fill="#F7F7F7" transform="translate(234,91)"/>
<path d="M0 0 C1.46566406 -0.00386719 1.46566406 -0.00386719 2.9609375 -0.0078125 C3.98445312 -0.00007813 5.00796875 0.00765625 6.0625 0.015625 C7.08601562 0.00789063 8.10953125 0.00015625 9.1640625 -0.0078125 C10.14117187 -0.00523438 11.11828125 -0.00265625 12.125 0 C13.02347656 0.00225586 13.92195313 0.00451172 14.84765625 0.00683594 C17.0625 0.265625 17.0625 0.265625 19.0625 2.265625 C19.3125 4.765625 19.3125 4.765625 19.0625 7.265625 C16.53195663 9.79616837 15.62701118 9.52245729 12.125 9.53125 C11.14789063 9.53382813 10.17078125 9.53640625 9.1640625 9.5390625 C8.14054688 9.53132812 7.11703125 9.52359375 6.0625 9.515625 C5.03898438 9.52335938 4.01546875 9.53109375 2.9609375 9.5390625 C1.98382813 9.53648437 1.00671875 9.53390625 0 9.53125 C-0.89847656 9.52899414 -1.79695312 9.52673828 -2.72265625 9.52441406 C-4.9375 9.265625 -4.9375 9.265625 -6.9375 7.265625 C-7.1875 4.765625 -7.1875 4.765625 -6.9375 2.265625 C-4.40695663 -0.26491837 -3.50201118 0.00879271 0 0 Z " fill="#FAFAFA" transform="translate(233.9375,121.734375)"/>
<path d="M0 0 C0.92748047 -0.00257812 1.85496094 -0.00515625 2.81054688 -0.0078125 C4.26750977 0.00378906 4.26750977 0.00378906 5.75390625 0.015625 C7.20506836 0.00402344 7.20506836 0.00402344 8.68554688 -0.0078125 C10.07870117 -0.00394531 10.07870117 -0.00394531 11.5 0 C12.35134521 0.00225586 13.20269043 0.00451172 14.07983398 0.00683594 C16.31640625 0.265625 16.31640625 0.265625 19.31640625 2.265625 C19.62890625 4.765625 19.62890625 4.765625 19.31640625 7.265625 C16.78586288 9.79616837 15.88091743 9.52245729 12.37890625 9.53125 C11.40179688 9.53382813 10.4246875 9.53640625 9.41796875 9.5390625 C8.39445312 9.53132812 7.3709375 9.52359375 6.31640625 9.515625 C5.29289062 9.52335938 4.269375 9.53109375 3.21484375 9.5390625 C2.23773438 9.53648437 1.260625 9.53390625 0.25390625 9.53125 C-0.64457031 9.52899414 -1.54304688 9.52673828 -2.46875 9.52441406 C-4.68359375 9.265625 -4.68359375 9.265625 -6.68359375 7.265625 C-6.93359375 4.765625 -6.93359375 4.765625 -6.68359375 2.265625 C-4.19926478 -0.21870397 -3.42330837 0.00908297 0 0 Z " fill="#FAFAFA" transform="translate(384.68359375,121.734375)"/>
</svg>
