<?xml version="1.0" encoding="UTF-8"?>
<svg version="1.1" xmlns="http://www.w3.org/2000/svg" width="521" height="522">
<path d="M0 0 C1.43912943 1.35243488 2.87680824 2.70641638 4.3125 4.0625 C5.59977918 5.17177865 6.89138284 6.27606091 8.1875 7.375 C17.4828457 15.50608018 25.66940512 24.37447841 33.3125 34.0625 C33.91964844 34.77921875 34.52679688 35.4959375 35.15234375 36.234375 C72.75791541 81.07484522 91.86429726 140.58721982 91.625 198.625 C91.62226578 200.00638657 91.62226578 200.00638657 91.61947632 201.41567993 C91.57157832 215.82236686 90.93673105 229.86588333 88.3125 244.0625 C88.07901855 245.41190674 88.07901855 245.41190674 87.84082031 246.78857422 C78.87628311 297.54288512 53.94104371 344.1024629 18.3125 381.0625 C17.77834473 381.61856934 17.24418945 382.17463867 16.69384766 382.74755859 C9.62720912 390.06620207 2.35333546 396.80600724 -5.6875 403.0625 C-7.12609375 404.22652344 -7.12609375 404.22652344 -8.59375 405.4140625 C-44.56693859 434.02909888 -88.34115058 451.69125069 -133.6875 458.0625 C-134.49364746 458.17964355 -135.29979492 458.29678711 -136.13037109 458.41748047 C-202.34038141 467.67560159 -271.61723885 448.8385265 -325 409.0625 C-327.58630575 407.09172422 -330.14458055 405.08888893 -332.6875 403.0625 C-333.54988281 402.37583252 -333.54988281 402.37583252 -334.4296875 401.67529297 C-349.60813611 389.43898028 -363.95334275 375.50770398 -375.45458984 359.73535156 C-376.7071879 358.03578684 -377.99846542 356.372629 -379.30078125 354.7109375 C-391.63682858 338.75191937 -401.93936892 320.6841586 -409.6875 302.0625 C-410.04650391 301.20317871 -410.40550781 300.34385742 -410.77539062 299.45849609 C-422.17839629 271.70373571 -429.73247441 241.41306992 -429.890625 211.26953125 C-429.89763931 210.36899017 -429.90465363 209.4684491 -429.91188049 208.5406189 C-429.92927902 205.65202774 -429.9357324 202.76364163 -429.9375 199.875 C-429.93817474 198.88762848 -429.93884949 197.90025696 -429.93954468 196.88296509 C-429.92379396 182.38921207 -429.46120989 168.32570556 -426.6875 154.0625 C-426.5318457 153.18142578 -426.37619141 152.30035156 -426.21582031 151.39257812 C-418.59716242 108.53952835 -399.71666445 67.38891938 -371.6875 34.0625 C-371.27483887 33.56105469 -370.86217773 33.05960937 -370.43701172 32.54296875 C-359.14409516 18.82283235 -346.84374626 5.85735807 -332.6875 -4.9375 C-331.48811147 -5.87738755 -330.28890507 -6.81750755 -329.08984375 -7.7578125 C-251.70980868 -67.77849643 -146.31530744 -77.71274974 0 0 Z " fill="#373435" transform="translate(429.6875,61.9375)"/>
<path d="M0 0 C3.777862 2.92977053 6.31275199 6.00675989 7.7890625 10.609375 C8.66013527 17.69772965 8.17567077 23.79870839 3.7890625 29.609375 C1.58944806 31.80898944 -0.75382884 33.70904959 -3.2109375 35.609375 C-3.8709375 36.269375 -4.5309375 36.929375 -5.2109375 37.609375 C-4.7984375 38.01542969 -4.3859375 38.42148437 -3.9609375 38.83984375 C2.38730331 45.93910412 9.7890625 59.78977171 9.7890625 69.609375 C3.5190625 69.609375 -2.7509375 69.609375 -9.2109375 69.609375 C-9.7471875 68.413125 -10.2834375 67.216875 -10.8359375 65.984375 C-11.20074219 65.17355469 -11.56554687 64.36273438 -11.94140625 63.52734375 C-12.87620757 61.37873887 -13.7685452 59.21153653 -14.63671875 57.03515625 C-14.88663574 56.41785645 -15.13655273 55.80055664 -15.39404297 55.16455078 C-16.12210501 53.36206708 -16.83670329 51.55416303 -17.55078125 49.74609375 C-19.40926756 46.23464786 -20.81068455 44.64565735 -24.2109375 42.609375 C-27.6759375 42.114375 -27.6759375 42.114375 -31.2109375 41.609375 C-31.2109375 50.519375 -31.2109375 59.429375 -31.2109375 68.609375 C-37.1509375 68.609375 -43.0909375 68.609375 -49.2109375 68.609375 C-49.2109375 44.519375 -49.2109375 20.429375 -49.2109375 -4.390625 C-33.73823613 -6.60101091 -13.83106717 -8.69939914 0 0 Z " fill="#FBFBFB" transform="translate(352.2109375,228.390625)"/>
<path d="M0 0 C1.5631897 0.00785522 1.5631897 0.00785522 3.15795898 0.01586914 C4.28266602 0.0190918 5.40737305 0.02231445 6.56616211 0.02563477 C7.75016602 0.03401367 8.93416992 0.04239258 10.15405273 0.05102539 C11.34192383 0.05553711 12.52979492 0.06004883 13.75366211 0.06469727 C16.69967499 0.07652864 19.64558954 0.09301252 22.59155273 0.11352539 C25.75799186 8.92678096 28.84623061 17.73088094 31.53686523 26.70336914 C32.53931534 29.94462449 33.60944179 33.15359512 34.70239258 36.36499023 C37.29809698 44.00282972 39.71601049 51.67909602 41.96655273 59.42602539 C42.22936035 60.31547852 42.49216797 61.20493164 42.76293945 62.12133789 C43.12282959 63.38010742 43.12282959 63.38010742 43.48999023 64.66430664 C43.70316895 65.40334229 43.91634766 66.14237793 44.13598633 66.90380859 C44.59155273 69.11352539 44.59155273 69.11352539 44.59155273 74.11352539 C38.65155273 74.11352539 32.71155273 74.11352539 26.59155273 74.11352539 C25.60155273 71.47352539 24.61155273 68.83352539 23.59155273 66.11352539 C22.90155896 64.45991962 22.19693372 62.81219381 21.46655273 61.17602539 C21.13397461 60.42450195 20.80139648 59.67297852 20.45874023 58.89868164 C19.72245486 57.13540659 19.72245486 57.13540659 18.59155273 56.11352539 C15.78977307 56.01325117 13.01806161 55.9747925 10.21655273 55.98852539 C9.43538086 55.9846582 8.65420898 55.98079102 7.84936523 55.97680664 C4.51495814 55.98251624 1.77548287 56.05221535 -1.40844727 57.11352539 C-2.42503701 59.79309142 -3.26794867 62.36340079 -4.03344727 65.11352539 C-6.31605596 73.02113409 -6.31605596 73.02113409 -7.40844727 74.11352539 C-8.7511214 74.19984413 -10.09819048 74.22059012 -11.44360352 74.21118164 C-12.25249023 74.20795898 -13.06137695 74.20473633 -13.89477539 74.20141602 C-14.74491211 74.19303711 -15.59504883 74.1846582 -16.47094727 74.17602539 C-17.32495117 74.17151367 -18.17895508 74.16700195 -19.05883789 74.16235352 C-21.1754039 74.15052912 -23.29193412 74.13259308 -25.40844727 74.11352539 C-24.76505115 67.54007457 -22.78047528 61.55208854 -20.73266602 55.29321289 C-20.36623489 54.1575589 -19.99980377 53.02190491 -19.62226868 51.85183716 C-18.45215567 48.22898397 -17.27431233 44.60870196 -16.09594727 40.98852539 C-14.9299549 37.38925224 -13.76556672 33.78946433 -12.60176086 30.18948364 C-11.87877634 27.95496552 -11.15426419 25.72094083 -10.42790222 23.48751831 C-8.28440003 16.88483556 -6.22447667 10.26308397 -4.23786926 3.61135864 C-3.08701152 0.14551043 -3.08701152 0.14551043 0 0 Z " fill="#FAFAFA" transform="translate(244.408447265625,223.886474609375)"/>
<path d="M0 0 C0.79921875 -0.01611328 1.5984375 -0.03222656 2.421875 -0.04882812 C7.95519336 -0.05330492 13.77961595 0.40787093 18.625 3.3125 C20.16536573 7.05311828 19.13297894 9.38309907 17.6875 13.0625 C17.11708984 14.53976563 17.11708984 14.53976563 16.53515625 16.046875 C16.23480469 16.79453125 15.93445313 17.5421875 15.625 18.3125 C14.59375 17.9825 13.5625 17.6525 12.5 17.3125 C6.35885513 15.76894474 -0.09163121 15.76959139 -6.375 16.3125 C-9.58777591 17.94884663 -9.58777591 17.94884663 -9.875 20.6875 C-9.16212837 24.43007604 -7.47937022 25.17384174 -4.375 27.3125 C-1.93822812 28.3548817 0.44937653 29.29732276 2.9375 30.1875 C11.31003932 33.38679598 18.23561733 37.02277785 22.78125 45.0390625 C24.82483307 50.54538355 24.498926 56.71816742 22.4375 62.1875 C18.4488552 69.06447379 12.89873566 72.46863342 5.625 75.3125 C-6.00192335 77.82429458 -17.40013782 76.81416503 -28.375 72.3125 C-29.365 71.6525 -30.355 70.9925 -31.375 70.3125 C-30.77880045 65.44353697 -29.80523178 60.98459049 -28.375 56.3125 C-27.70597656 56.5290625 -27.03695312 56.745625 -26.34765625 56.96875 C-19.94963318 58.82374729 -13.94130424 59.63650375 -7.3125 59.6875 C-6.57459229 59.70103516 -5.83668457 59.71457031 -5.07641602 59.72851562 C-2.07814624 59.70355604 0.07945004 59.68338772 2.6015625 57.96875 C3.84329994 56.22506611 3.84329994 56.22506611 3.9375 53.4375 C1.81005887 48.37216397 -2.51419965 47.42256932 -7.375 45.3125 C-25.06002911 37.4233503 -25.06002911 37.4233503 -28.58203125 31.64453125 C-30.55139647 25.85285128 -30.57365249 19.67857892 -28.51953125 13.91015625 C-25.10110658 7.83166051 -19.71499318 3.51769458 -13.203125 1.16796875 C-8.71593956 0.16522017 -4.58010919 -0.01829117 0 0 Z " fill="#F9F9F9" transform="translate(120.375,222.6875)"/>
<path d="M0 0 C8.25 0 16.5 0 25 0 C25.06779407 10.21395914 25.12282668 20.42776869 25.15543652 30.64190197 C25.1710881 35.38480683 25.19231715 40.1275497 25.22631836 44.87036133 C25.25892985 49.44800215 25.27685684 54.02548721 25.28463173 58.60323524 C25.29017202 60.34913904 25.30099089 62.09503438 25.31719017 63.84087181 C25.33898842 66.28757482 25.34196595 68.73363533 25.34057617 71.18041992 C25.351362 71.90115189 25.36214783 72.62188385 25.3732605 73.36445618 C25.34624995 77.76311945 24.65996189 80.48263248 22 84 C18.70327528 86.88463413 16.08650547 87.89749948 11.6875 88.3125 C7.26732079 87.93790854 5.37270719 86.83614013 2 84 C-1.90569177 79.28360579 -1.4015272 74.41504942 -1.328125 68.59375 C-1.32661438 67.56804901 -1.32510376 66.54234802 -1.32354736 65.48556519 C-1.31419816 62.15677808 -1.28271149 58.82863267 -1.25 55.5 C-1.23810808 53.22607838 -1.22704182 50.95215229 -1.21679688 48.67822266 C-1.12249127 32.43364617 -0.71340392 16.22993926 0 0 Z " fill="#FBFBFB" transform="translate(242,361)"/>
<path d="M0 0 C3.7094303 2.06079461 5.64380056 3.46570083 8 7 C8.18397647 9.62823031 8.25235473 12.14871231 8.22705078 14.77612305 C8.22734283 15.56660034 8.22763489 16.35707764 8.22793579 17.17150879 C8.22654214 19.78502366 8.21097938 22.39825366 8.1953125 25.01171875 C8.19158249 26.82346948 8.18873546 28.63522224 8.18673706 30.44697571 C8.17909964 35.21621263 8.1594502 39.9853278 8.1373291 44.7545166 C8.11687303 49.62083285 8.10773585 54.48716877 8.09765625 59.35351562 C8.07620441 68.90240586 8.04102136 78.45117376 8 88 C-0.25 87.67 -8.5 87.34 -17 87 C-17.30391315 75.33733286 -17.58467062 63.67490962 -17.81471252 52.01054382 C-17.91000518 47.2044494 -18.01234836 42.3989972 -18.14404297 37.59375 C-18.25495224 33.53963815 -18.33754262 29.48600134 -18.39697266 25.43081665 C-18.42379369 23.94618749 -18.46123433 22.46170873 -18.50976562 20.97763062 C-18.91627833 8.21113528 -18.91627833 8.21113528 -15.22265625 3.67578125 C-10.55145373 -0.83790656 -6.28606109 -1.69240106 0 0 Z " fill="#FBFBFB" transform="translate(259,74)"/>
<path d="M0 0 C7.42597701 6.29593181 7.42597701 6.29593181 10.30859375 9.2109375 C10.82744141 9.73300781 11.34628906 10.25507813 11.88085938 10.79296875 C12.39455078 11.31503906 12.90824219 11.83710938 13.4375 12.375 C13.97826172 12.92027344 14.51902344 13.46554687 15.07617188 14.02734375 C16.38646723 15.34923464 17.69358284 16.67427618 19 18 C17.25399339 21.77362719 15.10159421 24.20100034 12 27 C11.01 27.33 10.02 27.66 9 28 C8.29602287 29.31401614 7.63333048 30.65051316 7 32 C5.54705811 33.71363831 5.54705811 33.71363831 3.83886719 35.43579102 C2.87711578 36.41184044 2.87711578 36.41184044 1.89593506 37.40760803 C1.20324524 38.09938644 0.51055542 38.79116486 -0.203125 39.50390625 C-0.91853455 40.22360092 -1.63394409 40.94329559 -2.37103271 41.68479919 C-3.88493788 43.20444275 -5.40146471 44.72147839 -6.92041016 46.23608398 C-9.23619483 48.54871364 -11.53835825 50.87432226 -13.83984375 53.20117188 C-15.31429249 54.67789421 -16.78952757 56.15383191 -18.265625 57.62890625 C-18.9502179 58.32270889 -19.63481079 59.01651154 -20.34014893 59.7313385 C-25.01413544 64.36079405 -29.58232574 68.39974385 -36.5 68.5 C-39.81617547 68.38256377 -41.80683615 67.85142528 -44.4375 65.8125 C-48.11494124 61.776284 -49.22954288 59.09783339 -49.0625 53.6875 C-48.49332091 50.02365898 -47.53524453 48.04123753 -45.03686523 45.31640625 C-44.40368378 44.62458252 -43.77050232 43.93275879 -43.11813354 43.2199707 C-39.25360132 39.1696367 -35.31797812 35.19651327 -31.34765625 31.25 C-30.44752304 30.35128174 -29.54738983 29.45256348 -28.61997986 28.52661133 C-26.25288737 26.16413425 -23.88365361 23.80384888 -21.51330566 21.44464111 C-19.08449258 19.02614819 -16.65858897 16.60474054 -14.23242188 14.18359375 C-9.49092631 9.45307046 -4.74658102 4.72542027 0 0 Z " fill="#FBFBFB" transform="translate(163,333)"/>
<path d="M0 0 C19.47 0 38.94 0 59 0 C59 4.95 59 9.9 59 15 C52.4 15 45.8 15 39 15 C39 34.47 39 53.94 39 74 C33.06 74 27.12 74 21 74 C20 73 20 73 19.87974548 70.67784119 C19.8830764 69.13562645 19.8830764 69.13562645 19.88647461 67.56225586 C19.88655014 66.40112778 19.88662567 65.23999969 19.88670349 64.04368591 C19.89186478 62.780168 19.89702606 61.51665009 19.90234375 60.21484375 C19.9037587 58.92888809 19.90517365 57.64293243 19.90663147 56.31800842 C19.91045582 52.89356557 19.92028538 49.46916491 19.93133545 46.04473877 C19.94155136 42.55261811 19.94612947 39.06049066 19.95117188 35.56835938 C19.96190774 28.71222047 19.97950386 21.8561166 20 15 C13.4 15 6.8 15 0 15 C0 10.05 0 5.1 0 0 Z " fill="#F9F9F9" transform="translate(154,224)"/>
<path d="M0 0 C5.13722479 1.81313816 7.59980377 4.10729231 10 9 C10.79766514 15.28161302 9.56654217 18.75428436 6 24 C3.61245802 26.78137603 1.03181976 29.34233651 -1.58203125 31.91015625 C-2.31443527 32.6406871 -3.04683929 33.37121796 -3.80143738 34.12388611 C-5.3453187 35.66107263 -6.89277998 37.19467107 -8.44360352 38.72485352 C-10.80156375 41.05170802 -13.14873624 43.38901225 -15.49414062 45.72851562 C-17.00198484 47.22718588 -18.51042889 48.72525291 -20.01953125 50.22265625 C-21.06207817 51.25882835 -21.06207817 51.25882835 -22.12568665 52.31593323 C-25.81440539 55.95154044 -29.56810442 59.42764788 -33.56010437 62.72898865 C-35.3364942 64.29702705 -36.70527413 66.01983102 -38 68 C-41.2586636 66.5735422 -43.4024854 64.83295838 -45.890625 62.3046875 C-46.59960938 61.58925781 -47.30859375 60.87382812 -48.0390625 60.13671875 C-48.76867187 59.39035156 -49.49828125 58.64398438 -50.25 57.875 C-50.99507813 57.12089844 -51.74015625 56.36679688 -52.5078125 55.58984375 C-54.3431342 53.73099228 -56.1736191 51.86762995 -58 50 C-53.22400736 44.2609313 -48.11419396 38.95331133 -42.83984375 33.671875 C-41.97235001 32.80105286 -41.10485626 31.93023071 -40.21107483 31.03302002 C-38.38608901 29.20299448 -36.55976581 27.37430176 -34.73217773 25.546875 C-31.93770594 22.75020611 -29.15134093 19.94562457 -26.36523438 17.140625 C-24.58642747 15.3588857 -22.80714682 13.57761922 -21.02734375 11.796875 C-20.19702133 10.95936707 -19.36669891 10.12185913 -18.51121521 9.25897217 C-17.73012894 8.48096252 -16.94904266 7.70295288 -16.14428711 6.90136719 C-15.46289169 6.21854675 -14.78149628 5.53572632 -14.07945251 4.83221436 C-9.47014641 0.77093536 -6.19417617 -0.65201854 0 0 Z " fill="#FBFBFB" transform="translate(384,121)"/>
<path d="M0 0 C6.42789342 3.0742099 11.0940655 8.95411808 16 14 C17.66501296 15.66831874 19.33201864 17.33464906 21 19 C22.10727266 20.1070828 23.21444388 21.21426706 24.3215332 22.3215332 C24.92177811 22.92177811 25.52202301 23.52202301 26.14045715 24.14045715 C34.42697144 32.42697144 42.71348572 40.71348572 51 49 C49.51136264 52.11966041 47.99711308 54.24012613 45.5234375 56.671875 C44.853125 57.33574219 44.1828125 57.99960938 43.4921875 58.68359375 C42.79351562 59.36550781 42.09484375 60.04742187 41.375 60.75 C40.66859375 61.44738281 39.9621875 62.14476562 39.234375 62.86328125 C37.49401297 64.58012488 35.74915019 66.29211832 34 68 C30.14972794 66.42035813 27.75374465 63.96855605 24.859375 61.01953125 C24.37349915 60.52845383 23.88762329 60.0373764 23.38702393 59.53141785 C21.83649697 57.96314352 20.29280844 56.38836518 18.75 54.8125 C16.72743905 52.75305442 14.70164979 50.69686759 12.671875 48.64453125 C12.18178452 48.14898743 11.69169403 47.6534436 11.18675232 47.1428833 C7.28503391 43.22585696 3.20264408 39.58609608 -1 36 C-15.85228398 22.23942236 -15.85228398 22.23942236 -17.1875 14.375 C-17.36576989 9.51926789 -15.91664406 6.83768955 -13 3 C-9.09890472 -0.3592765 -4.988726 -0.84302527 0 0 Z " fill="#FBFBFB" transform="translate(131,121)"/>
<path d="M0 0 C4.65585187 3.88588963 9.05488211 7.92570101 13.30859375 12.24609375 C14.16421654 13.10739647 14.16421654 13.10739647 15.03712463 13.98609924 C17.44375215 16.40885446 19.84431429 18.83758538 22.24536133 21.26586914 C31.08351447 30.19889698 31.08351447 30.19889698 40.41040039 38.61450195 C44.70329858 42.35620019 49.21611271 46.80882013 50.60546875 52.46484375 C50.80113443 58.06460912 49.1201045 61.52654475 45.5 65.75 C42.39062448 68.34114626 38.50815892 68.63728142 34.6015625 68.60546875 C29.02522274 67.30767196 25.04699421 62.837879 21 59 C20.33742188 58.38125 19.67484375 57.7625 18.9921875 57.125 C16.19588633 54.4164751 13.61878676 51.56808985 11.10546875 48.59765625 C5.7333297 42.43608087 -0.13878181 36.75530357 -5.9375 31 C-7.11026009 29.83226626 -8.28278798 28.66429926 -9.45507812 27.49609375 C-12.30071689 24.66136766 -15.14947453 21.82981176 -18 19 C-14.07711742 14.29658874 -9.98981304 9.85726049 -5.625 5.5625 C-5.07972656 5.02173828 -4.53445313 4.48097656 -3.97265625 3.92382812 C-2.65076536 2.61353277 -1.32572382 1.30641716 0 0 Z " fill="#FBFBFB" transform="translate(344,333)"/>
<path d="M0 0 C19.47 0 38.94 0 59 0 C59 4.95 59 9.9 59 15 C52.4 15 45.8 15 39 15 C39.0103125 17.1759375 39.020625 19.351875 39.03125 21.59375 C39.04919499 32.23288542 38.76485503 42.86491525 38.5 53.5 C38.45164713 55.49869367 38.40346895 57.49739158 38.35546875 59.49609375 C38.23930783 64.33079118 38.11958421 69.16538126 38 74 C32.06 74 26.12 74 20 74 C20 54.53 20 35.06 20 15 C13.4 15 6.8 15 0 15 C0 10.05 0 5.1 0 0 Z " fill="#FBFBFB" transform="translate(373,224)"/>
<path d="M0 0 C7.41042394 -0.30042259 11.61816195 0.07877464 17.875 4.25 C19.82549191 7.28409852 19.54172882 9.5088587 19 13 C16.54438235 16.02705068 13.7004871 17.7665043 10 19 C8.27204648 19.06802967 6.54164635 19.08495645 4.8125 19.0625 C3.224375 19.041875 1.63625 19.02125 0 19 C0 12.73 0 6.46 0 0 Z " fill="#383536" transform="translate(322,237)"/>
<path d="M0 0 C3.65135427 3.84409438 4.44788246 8.57032424 5.6875 13.5625 C5.91244141 14.42552734 6.13738281 15.28855469 6.36914062 16.17773438 C8 22.55741831 8 22.55741831 8 26 C3.38 26 -1.24 26 -6 26 C-2.28571429 2.28571429 -2.28571429 2.28571429 0 0 Z " fill="#3F3C3D" transform="translate(253,239)"/>
</svg>
