<?xml version="1.0" encoding="UTF-8"?>
<svg version="1.1" xmlns="http://www.w3.org/2000/svg" width="521" height="522">
<path d="M0 0 C0.64163086 0.33821777 1.28326172 0.67643555 1.94433594 1.02490234 C16.65798838 8.80149829 30.25986354 18.29749406 43 29 C43.52658203 29.43779785 44.05316406 29.8755957 44.59570312 30.32666016 C55.54229388 39.44367698 65.89264648 49.00453661 75 60 C75.41830078 60.49918945 75.83660156 60.99837891 76.26757812 61.51269531 C122.47287643 116.87551101 142.2136068 186.58566724 136.5390625 258.07421875 C135.9538237 263.76661672 135.05984855 269.37819462 134 275 C133.70996094 276.5778125 133.70996094 276.5778125 133.4140625 278.1875 C125.32442763 320.93273119 107.18119067 360.12675148 80 394 C79.21753906 394.98871094 78.43507813 395.97742188 77.62890625 396.99609375 C65.6361275 411.68303809 52.04351044 425.61084724 36.67871094 436.77001953 C34.92194482 438.05719052 33.1987935 439.38188414 31.4765625 440.71484375 C-4.52830599 468.28212952 -49.19797788 484.67716983 -94 490 C-94.7955127 490.09571289 -95.59102539 490.19142578 -96.41064453 490.29003906 C-105.12962558 491.21305015 -113.86714192 491.24346156 -122.625 491.25 C-123.44124847 491.25067474 -124.25749695 491.25134949 -125.09848022 491.25204468 C-139.24960462 491.23356048 -153.02871972 490.37859736 -167 488 C-168.43230957 487.76651855 -168.43230957 487.76651855 -169.89355469 487.52832031 C-232.9331954 476.93360042 -294.54416962 440.24770916 -332 388 C-332.85019038 386.85444913 -333.70178501 385.70993929 -334.5546875 384.56640625 C-340.60555678 376.3737377 -345.99939837 367.86914524 -351 359 C-351.64388672 357.86594727 -351.64388672 357.86594727 -352.30078125 356.70898438 C-365.87195027 332.55856113 -374.62164777 306.80754597 -380.25 279.75 C-380.40130371 279.03150879 -380.55260742 278.31301758 -380.70849609 277.57275391 C-383.76717234 261.9061105 -384.37646019 246.22781375 -384.3125 230.3125 C-384.31034485 229.3437796 -384.3081897 228.3750592 -384.30596924 227.37698364 C-384.2548551 213.04478487 -383.8006703 199.0946777 -381 185 C-380.80664062 183.96810547 -380.61328125 182.93621094 -380.4140625 181.87304688 C-372.90779019 142.41878222 -357.06986587 106.12842766 -333 74 C-332.54802246 73.3910791 -332.09604492 72.7821582 -331.63037109 72.15478516 C-324.40885478 62.48127535 -316.36743163 53.68843285 -308 45 C-307.2471875 44.2059375 -306.494375 43.411875 -305.71875 42.59375 C-300.53768761 37.24281672 -294.82371111 32.63045071 -289 28 C-287.92646889 27.12445076 -286.85357003 26.24812583 -285.78125 25.37109375 C-209.67747566 -36.34842548 -102.07610969 -47.1303159 0 0 Z " fill="#373435" transform="translate(384,31)"/>
<path d="M0 0 C14.12392135 11.36910078 24.62278311 24.54431101 30 42 C30.22558594 42.70898438 30.45117188 43.41796875 30.68359375 44.1484375 C32.1158437 49.14649595 32.21423562 53.85834515 32 59 C32.58007812 59.02578125 33.16015625 59.0515625 33.7578125 59.078125 C40.5648707 59.57236685 44.57803653 61.30892948 49.25 66.5 C52.30555081 70.86507259 53.25418572 73.63308601 53.265625 79.0234375 C53.27203003 80.79303833 53.27203003 80.79303833 53.27856445 82.59838867 C53.26913818 83.84467041 53.25971191 85.09095215 53.25 86.375 C53.24250732 87.64255127 53.23501465 88.91010254 53.22729492 90.21606445 C52.92769392 116.23783385 52.92769392 116.23783385 44.28125 125.92578125 C35.95751171 133.89132589 23.64300718 138.15961204 12.5234375 140.52734375 C6.03416679 142.05488686 3.77960015 145.48968745 0.19140625 150.93359375 C-2.99976308 155.39895547 -6.82539441 158.99628598 -10.77734375 162.78515625 C-14.36007956 166.35529896 -14.18607215 168.64928222 -14.25 173.625 C-14.16681042 182.66493423 -12.2684303 188.42579262 -6 195 C-5.48566406 195.54398438 -4.97132813 196.08796875 -4.44140625 196.6484375 C-0.58841073 198.78145582 3.29584909 198.31327709 7.625 198.3125 C22.55093846 198.68235084 36.07557547 202.78047688 48 212 C49.27230469 212.96679688 49.27230469 212.96679688 50.5703125 213.953125 C61.77077078 223.20120982 70.59469667 237.56818004 73 252 C73.11135916 253.72871837 73.2152756 255.45792911 73.3125 257.1875 C73.60770616 261.29805244 73.60770616 261.29805244 76.5 264.3125 C80.58627551 268.70524617 79.90672247 274.20831318 80 280 C84.95 281.485 84.95 281.485 90 283 C90.49628906 282.4225 90.99257813 281.845 91.50390625 281.25 C97.06226275 275.17483237 97.06226275 275.17483237 101.6875 274.3125 C107.71857319 275.56423217 111.46658604 279.14767316 115.6875 283.4375 C116.17283203 283.91509766 116.65816406 284.39269531 117.15820312 284.88476562 C120.83050178 288.57732524 122.96134626 290.99000536 123.0625 296.25 C121.93693937 300.22256693 121.10918383 301.06435243 118.25 303.8125 C116.26452361 305.71289153 116.26452361 305.71289153 115 308 C115.27798488 311.66625342 116.43490733 314.69365704 118 318 C118.88042969 318.01417969 119.76085937 318.02835937 120.66796875 318.04296875 C121.82941406 318.09066406 122.99085938 318.13835937 124.1875 318.1875 C125.91033203 318.23970703 125.91033203 318.23970703 127.66796875 318.29296875 C132.10222549 319.23388372 133.47687735 320.21064358 136 324 C136.69809444 327.85143813 136.65265718 331.59643785 136.5625 335.5 C136.57345703 336.53253906 136.58441406 337.56507813 136.59570312 338.62890625 C136.55113868 343.23389935 136.50800983 346.16058908 134.08984375 350.15625 C130.70919857 353.13880051 128.3132862 353.23198933 123.875 353.5625 C122.23144531 353.68818359 122.23144531 353.68818359 120.5546875 353.81640625 C119.71164062 353.87699219 118.86859375 353.93757813 118 354 C117.2265625 355.60875 117.2265625 355.60875 116.4375 357.25 C116.14746094 357.85328125 115.85742188 358.4565625 115.55859375 359.078125 C114.85484849 361.49940239 115.07915253 362.66317601 116 365 C117.36428622 366.71656987 117.36428622 366.71656987 119 368.3125 C121.17779078 370.79687297 122.08738315 372.24030366 123.25 375.4375 C122.71912777 383.00242926 116.02844708 388.19622403 110.9296875 393.3359375 C108.16667067 395.71862003 105.81451978 396.83339368 102.25 397.5625 C97.91387914 396.81201754 95.99321879 394.67398253 92.9296875 391.62890625 C90.84826967 389.87191994 89.69619815 389.25375983 87 389 C85.05411693 389.5084165 85.05411693 389.5084165 83.25 390.4375 C82.1775 390.953125 81.105 391.46875 80 392 C79.96261719 392.73605469 79.92523438 393.47210938 79.88671875 394.23046875 C79.43947503 400.86896868 78.84007031 405.15992969 74 410 C70.08371986 410.51043012 66.1332429 410.41679348 62.1875 410.4375 C61.09373047 410.47037109 59.99996094 410.50324219 58.87304688 410.53710938 C49.8667539 410.59748063 49.8667539 410.59748063 46.80078125 407.59765625 C44.27539219 403.95474145 43.79522957 401.76996328 43.4375 397.375 C43.35371094 396.37210937 43.26992188 395.36921875 43.18359375 394.3359375 C43.12300781 393.56507813 43.06242188 392.79421875 43 392 C40.03344972 390.41371964 37.37310067 389.27631273 34 389 C30.78611578 390.84349704 28.51876644 393.31814796 26 396 C22.98221063 397.50889469 21.37677363 397.50026276 18 397 C13.96642024 394.21988328 10.64677999 390.93027176 7.85443115 386.91400146 C3.62825844 382.74582668 -1.59421349 383.22789599 -7.19541931 383.2122345 C-8.72891772 383.22721346 -10.26241075 383.24275027 -11.79589844 383.25878906 C-13.4191434 383.25389052 -15.04238219 383.24633017 -16.66560364 383.23631287 C-21.06428165 383.2164247 -25.46216442 383.23298913 -29.86080074 383.25557041 C-34.46302254 383.27240585 -39.06509025 383.25380531 -43.66729736 383.23846436 C-52.38067583 383.2144371 -61.09377162 383.21913203 -69.80715871 383.23558688 C-85.42658701 383.26414367 -101.04599586 383.24398623 -116.66540742 383.21318793 C-122.14930348 383.20351622 -127.6330112 383.20647187 -133.11689806 383.21986341 C-136.52037684 383.22665521 -139.92382372 383.22564724 -143.32730675 383.22285652 C-144.91000815 383.22336966 -146.49271267 383.22736856 -148.07539558 383.23503685 C-150.2289832 383.24510115 -152.38223037 383.24309988 -154.53582764 383.23809814 C-155.74295788 383.2403603 -156.95008812 383.24262245 -158.19379807 383.24495316 C-161 383 -161 383 -163 381 C-163.25447559 378.78840065 -163.25447559 378.78840065 -163.26069641 375.98086548 C-163.26778122 374.91844635 -163.27486603 373.85602722 -163.28216553 372.76141357 C-163.27968811 371.59056213 -163.27721069 370.41971069 -163.2746582 369.21337891 C-163.27976913 367.98390533 -163.28488007 366.75443176 -163.29014587 365.48770142 C-163.30169413 362.10687603 -163.30410975 358.72629526 -163.30158257 355.34546709 C-163.30051336 352.51818517 -163.30539595 349.69092586 -163.310188 346.86364877 C-163.32129938 340.18268231 -163.32171411 333.50177203 -163.31567383 326.82080078 C-163.30965752 319.95107514 -163.32188126 313.08155554 -163.3432439 306.21186507 C-163.36093795 300.30254336 -163.36684829 294.39328671 -163.36360615 288.48393953 C-163.36180253 284.96013894 -163.36433471 281.43648468 -163.37832069 277.91270828 C-163.39338625 273.96858121 -163.38386119 270.02470924 -163.37231445 266.08056641 C-163.38378006 264.35465271 -163.38378006 264.35465271 -163.39547729 262.59387207 C-163.28168488 244.90090808 -156.58337536 229.19802901 -144.05859375 216.7265625 C-130.29418871 203.95081102 -113.96766424 198.71239799 -95.51367188 198.609375 C-91.33261972 198.5010108 -88.702091 198.41957629 -85.05859375 196.2421875 C-83.06906951 194.07522941 -81.35397549 191.96505706 -79.75 189.5 C-78.99976563 188.37078125 -78.99976563 188.37078125 -78.234375 187.21875 C-74.86081689 181.15488605 -75.09446489 173.7160521 -76 167 C-77.77855595 163.64894031 -80.14215624 161.45655261 -83 159 C-95.12426772 147.88809658 -103.29921398 132.99638815 -107 117 C-107.61931396 117.0314209 -108.23862793 117.0628418 -108.87670898 117.09521484 C-111.72992218 117.22126788 -114.58254825 117.29838149 -117.4375 117.375 C-118.41138672 117.42527344 -119.38527344 117.47554687 -120.38867188 117.52734375 C-127.84036049 117.67687596 -132.51310779 116.11220136 -138 111 C-143.47197345 105.50445797 -143.64619952 99.51724039 -143.68359375 92.0234375 C-143.67312012 91.36182617 -143.66264648 90.70021484 -143.65185547 90.01855469 C-143.62503521 88.00264641 -143.65168361 85.99230152 -143.68359375 83.9765625 C-143.64583558 76.40982453 -143.22212813 70.74578752 -138 65 C-133.89101841 61.1916756 -130.89429158 59.06314305 -125.25 58.875 C-124.1775 58.91625 -123.105 58.9575 -122 59 C-122.103125 57.865625 -122.20625 56.73125 -122.3125 55.5625 C-122.22821588 37.69426575 -112.12768076 21.28231421 -100 9 C-99.42636719 8.36578125 -98.85273438 7.7315625 -98.26171875 7.078125 C-73.35610034 -19.78903376 -28.80147813 -20.63949573 0 0 Z " fill="#F9F8F9" transform="translate(274,63)"/>
<path d="M0 0 C1.80969269 -0.01270432 1.80969269 -0.01270432 3.65594482 -0.02566528 C6.93315779 -0.04491696 10.21001808 -0.05082218 13.48727703 -0.04891777 C16.2401809 -0.04879709 18.99303305 -0.05740087 21.74592233 -0.06569529 C28.25122373 -0.08485772 34.75639687 -0.08783996 41.26171875 -0.08105469 C47.93233324 -0.07442392 54.6023934 -0.09725536 61.27289557 -0.13436842 C67.03554413 -0.16524558 72.79801605 -0.17640599 78.56074548 -0.1725316 C81.98681149 -0.17048203 85.41244603 -0.17566019 88.83843231 -0.20042419 C110.14168109 -0.32473289 127.12023171 1.02626666 143.61035156 15.98242188 C151.57270643 24.40351323 158.51904843 36.72257821 158.61035156 48.48242188 C158.54847656 49.78179687 158.48660156 51.08117187 158.42285156 52.41992188 C157.21048828 52.45859375 157.21048828 52.45859375 155.97363281 52.49804688 C149.28195987 52.77333457 149.28195987 52.77333457 143.23535156 55.35742188 C140.27805442 58.72262207 140.18877303 61.13469077 139.86035156 65.54492188 C139.7765625 66.640625 139.69277344 67.73632812 139.60644531 68.86523438 C139.54585937 69.70828125 139.48527344 70.55132812 139.42285156 71.41992188 C136.12285156 72.73992187 132.82285156 74.05992187 129.42285156 75.41992188 C127.66503906 73.62955729 125.90722656 71.83919271 124.14941406 70.04882812 C121.31819554 67.37774639 118.68362842 66.7820929 114.77832031 66.81054688 C109.5843271 68.15426651 106.033437 72.66689481 102.42285156 76.41992188 C101.84664062 76.95359375 101.27042969 77.48726563 100.67675781 78.03710938 C97.98812661 80.73335709 97.00955538 83.15991512 96.67285156 86.85742188 C96.80646302 89.80677105 97.12226881 91.06184267 99.03613281 93.34179688 C100.32120953 94.5058343 101.61665545 95.65853999 102.92285156 96.79882812 C104.42285156 98.41992188 104.42285156 98.41992188 104.48535156 101.54492188 C103.50798821 104.18955213 102.47519585 106.80447207 101.42285156 109.41992188 C100.61460937 109.44570313 99.80636719 109.47148437 98.97363281 109.49804688 C92.28195987 109.77333457 92.28195987 109.77333457 86.23535156 112.35742188 C82.34219946 116.78756048 83.12721892 121.57930172 83.04785156 127.23242188 C83.01046875 128.23080078 82.97308594 129.22917969 82.93457031 130.2578125 C82.87837707 134.94370465 82.87453096 137.59693043 85.52050781 141.56835938 C88.96581492 143.76630765 91.17190564 144.10928715 95.23535156 144.23242188 C96.39679688 144.28011719 97.55824219 144.3278125 98.75488281 144.37695312 C99.6353125 144.39113281 100.51574219 144.4053125 101.42285156 144.41992188 C101.95737716 145.66412835 102.47493767 146.91563123 102.98535156 148.16992188 C103.27539062 148.86601562 103.56542969 149.56210937 103.86425781 150.27929688 C104.53248163 152.84004268 104.26252307 153.92560715 103.42285156 156.41992188 C101.11086648 160.29262426 98.51335935 163.77331213 94.08761787 165.14222717 C91.32704749 165.40373157 88.66952568 165.41065372 85.89770508 165.328125 C84.86280441 165.32929321 83.82790375 165.33046143 82.76164246 165.33166504 C79.35695982 165.32611219 75.95582472 165.26398807 72.55175781 165.20117188 C70.18523573 165.1862435 67.81868886 165.1748593 65.45213318 165.16687012 C59.23559827 165.13638393 53.02056838 165.05784786 46.80462646 164.96923828 C40.45687214 164.88727287 34.10887363 164.85083558 27.76074219 164.81054688 C15.31411886 164.72485298 2.86861056 164.58838592 -9.57714844 164.41992188 C-9.58523529 163.53486969 -9.59332214 162.6498175 -9.60165405 161.73794556 C-9.67949994 153.40910376 -9.76675995 145.08042582 -9.86467552 136.75179482 C-9.91468425 132.46965416 -9.96101366 128.18753874 -9.99902344 123.90527344 C-10.03581874 119.7749197 -10.08216254 115.64477469 -10.13521194 111.51459885 C-10.15378663 109.93653387 -10.16888316 108.3584241 -10.1804924 106.78029251 C-10.19730271 104.57482645 -10.22632378 102.36984165 -10.25830078 100.16455078 C-10.27162445 98.90768463 -10.28494812 97.65081848 -10.29867554 96.35586548 C-10.27410397 93.29818082 -10.27410397 93.29818082 -12.57714844 91.41992188 C-15.8839831 91.70975456 -15.8839831 91.70975456 -18.57714844 93.41992188 C-18.70121659 95.62786599 -18.75517121 97.83976673 -18.7824707 100.05102539 C-18.7923703 100.74367493 -18.8022699 101.43632446 -18.81246948 102.14996338 C-18.84416874 104.44954967 -18.86887495 106.74915665 -18.89355469 109.04882812 C-18.91411696 110.63924205 -18.93511323 112.22965042 -18.95652771 113.8200531 C-19.01182353 118.0138195 -19.06119953 122.20763582 -19.109375 126.40148926 C-19.16834855 131.42922194 -19.23461766 136.45686303 -19.29967499 141.48451996 C-19.39777896 149.12959817 -19.48657021 156.77473409 -19.57714844 164.41992188 C-32.44714844 164.41992188 -45.31714844 164.41992188 -58.57714844 164.41992188 C-58.69048484 149.44138303 -58.7823918 134.4630672 -58.8362093 119.48419952 C-58.86187385 112.52755769 -58.89679577 105.57120329 -58.9543457 98.61474609 C-59.00994445 91.89087517 -59.03864039 85.16736321 -59.05153465 78.44325256 C-59.06071382 75.88862942 -59.07863725 73.334021 -59.10579872 70.77952576 C-59.32363342 49.42713486 -57.57332725 32.16007149 -42.51464844 15.73242188 C-30.41868257 4.25464847 -16.3834474 -0.04305826 0 0 Z " fill="#373435" transform="translate(178.5771484375,271.580078125)"/>
<path d="M0 0 C11.57560517 9.34019638 18.90907741 23.3217008 21 38 C21.75609155 51.35303496 22.13977469 65.1651595 18 78 C17.78005371 78.68868164 17.56010742 79.37736328 17.33349609 80.08691406 C16.60580589 82.31927825 15.8441231 84.53597508 15.0625 86.75 C14.82192871 87.44303223 14.58135742 88.13606445 14.33349609 88.85009766 C13.34438572 91.4669411 12.51968784 93.5671306 10.33984375 95.3828125 C6.76576746 96.32555716 3.16807078 96.75709071 -0.5 97.125 C-1.30010498 97.20556641 -2.10020996 97.28613281 -2.92456055 97.36914062 C-5.28196763 97.59453497 -7.64030566 97.80015618 -10 98 C-11.21300781 98.11085938 -12.42601562 98.22171875 -13.67578125 98.3359375 C-21.05655326 98.72198037 -21.05655326 98.72198037 -23.6640625 96.7265625 C-24.86423542 95.21714257 -25.9377506 93.60946879 -27 92 C-30.96101201 89.39704925 -35.06277325 89.76614699 -39.62109375 90.31640625 C-43.58796575 91.456312 -44.83051465 93.57081348 -47 97 C-48.53597454 100.07194908 -48.2265038 102.60244293 -48 106 C-46.18709505 111.13656401 -43.86953166 113.56523417 -39 116 C-33.79500079 116.6506249 -30.365558 115.910372 -26 113 C-25.55527344 111.989375 -25.11054688 110.97875 -24.65234375 109.9375 C-21.46365191 106.40598857 -20.52374675 106.50447169 -15.921875 106.1953125 C-13.5317252 106.14219806 -11.14073443 106.11989159 -8.75 106.125 C-6.91695312 106.0940625 -6.91695312 106.0940625 -5.046875 106.0625 C-2.03057091 106.01537025 0.98340264 105.99556196 4 106 C-3.49091974 116.70298079 -14.01755933 125.86035292 -27 129 C-40.28588397 130.60231767 -50.2192743 127.57903747 -61.1875 119.875 C-77.9055342 106.6708085 -88.10860044 85.96800123 -91 65 C-91.26436719 60.31468415 -91.27690044 55.62952261 -91.3125 50.9375 C-91.34150391 49.69033203 -91.37050781 48.44316406 -91.40039062 47.15820312 C-91.50800533 31.23950462 -86.28262808 16.19757937 -75.1875 4.5625 C-54.50814329 -14.65310707 -23.19990852 -15.31788832 0 0 Z " fill="#383536" transform="translate(264,100)"/>
<path d="M0 0 C4.95 0 9.9 0 15 0 C15.16276042 3.54817708 15.32552083 7.09635417 15.48828125 10.64453125 C15.74289827 13.88756477 15.74289827 13.88756477 17.203125 15.8203125 C19.52029475 17.34158482 21.80995329 18.18189751 24.4375 19.0625 C29.78145973 20.87290268 29.78145973 20.87290268 32.03515625 22.18359375 C34.7865741 23.32682701 36.20656153 22.97445528 39 22 C41.29765064 20.18345872 41.29765064 20.18345872 43.3125 17.9375 C44.00988281 17.20402344 44.70726562 16.47054688 45.42578125 15.71484375 C45.94527344 15.14894531 46.46476562 14.58304687 47 14 C50.45201639 15.47721422 52.64961936 17.43794001 55.25 20.125 C55.95640625 20.84945313 56.6628125 21.57390625 57.390625 22.3203125 C58.18726563 23.15175781 58.18726563 23.15175781 59 24 C58.06409496 25.1055189 57.12620142 26.20935453 56.1875 27.3125 C55.66542969 27.92738281 55.14335937 28.54226563 54.60546875 29.17578125 C53 31 53 31 51.33203125 32.5703125 C49.76574697 33.99872272 49.76574697 33.99872272 49.5 36.5625 C50.10814514 40.7434978 51.69408066 43.75762086 53.7109375 47.4375 C55 50 55 50 57 56 C62.28 56.33 67.56 56.66 73 57 C73 62.28 73 67.56 73 73 C65.08 73.495 65.08 73.495 57 74 C56.21625 75.8975 55.4325 77.795 54.625 79.75 C52.15266393 85.73565574 52.15266393 85.73565574 50.8359375 88.015625 C49.62293243 90.89509497 49.58849289 92.90578311 50 96 C51.92183644 98.64476557 51.92183644 98.64476557 54.5 100.875 C55.3353125 101.65617187 56.170625 102.43734375 57.03125 103.2421875 C58.00578125 104.11230469 58.00578125 104.11230469 59 105 C51.94975689 113.36628849 51.94975689 113.36628849 49 116 C48.34 116 47.68 116 47 116 C45.59765625 114.5390625 45.59765625 114.5390625 44.0625 112.625 C41.68628296 109.67144123 39.74252921 107.29871929 35.8125 106.625 C32.43488293 107.07534894 30.11209569 108.31680421 27.1328125 109.9140625 C24.98034871 111.0100056 22.83235601 111.86579585 20.5625 112.6875 C17.22626231 113.63405163 17.22626231 113.63405163 16 115 C15.76328017 117.52793394 15.5785675 120.02934966 15.4375 122.5625 C15.293125 125.016875 15.14875 127.47125 15 130 C10.05 130 5.1 130 0 130 C-0.495 122.575 -0.495 122.575 -1 115 C-2.98 114.13375 -2.98 114.13375 -5 113.25 C-8.7962538 111.57869329 -12.45293841 109.74836755 -16.078125 107.734375 C-18.64334956 106.75416724 -20.27083661 106.58333383 -23 107 C-25.47967332 108.94994426 -25.47967332 108.94994426 -27.6875 111.5 C-29.09266577 113.0303318 -30.52368443 114.53818654 -32 116 C-34 116 -34 116 -35.65625 114.35546875 C-36.2646875 113.64003906 -36.873125 112.92460937 -37.5 112.1875 C-38.1084375 111.47980469 -38.716875 110.77210938 -39.34375 110.04296875 C-41 108 -41 108 -43 105 C-42.51789063 104.52949219 -42.03578125 104.05898438 -41.5390625 103.57421875 C-40.59160156 102.64029297 -40.59160156 102.64029297 -39.625 101.6875 C-38.68527344 100.76517578 -38.68527344 100.76517578 -37.7265625 99.82421875 C-35.81913393 97.91187472 -35.81913393 97.91187472 -34 95 C-34.32366883 90.17940036 -36.07959268 86.09307312 -38.0625 81.75 C-41 75.24313501 -41 75.24313501 -41 73 C-46.28 72.67 -51.56 72.34 -57 72 C-57 67.05 -57 62.1 -57 57 C-52.05 56.67 -47.1 56.34 -42 56 C-41.4225 54.68 -40.845 53.36 -40.25 52 C-38.86570003 48.83942981 -37.36126953 45.82761794 -35.6875 42.8125 C-34.44426241 40.28108851 -33.98961947 38.87543369 -33.75 36 C-35.6971694 31.32679344 -39.27748036 28.34094018 -43 25 C-42.60167969 24.54109375 -42.20335937 24.0821875 -41.79296875 23.609375 C-39.08857938 20.47728415 -36.42008229 17.36122541 -34 14 C-29.94802146 15.73908447 -27.84098573 18.29382112 -25.07421875 21.63671875 C-22.95786301 23.31278674 -22.95786301 23.31278674 -19.73046875 22.89453125 C-15.82720873 21.95856628 -12.26856325 20.64698381 -8.625 19 C-7.99722656 18.72671875 -7.36945313 18.4534375 -6.72265625 18.171875 C-3.63922711 16.93687157 -3.63922711 16.93687157 -1 15 C-0.76328017 12.47206606 -0.5785675 9.97065034 -0.4375 7.4375 C-0.293125 4.983125 -0.14875 2.52875 0 0 Z " fill="#3A3738" transform="translate(328,334)"/>
<path d="M0 0 C15.24723889 10.14773556 26.35605453 25.95379387 30 44 C30.20902537 47.05358805 30.14834001 49.93430648 30 53 C28.02 53 26.04 53 24 53 C23.30777344 51.45892578 23.30777344 51.45892578 22.6015625 49.88671875 C14.3387471 32.08839472 3.19960854 21.92633448 -15.16650391 14.86401367 C-31.43189724 8.99233366 -50.80227715 10.8676992 -66.5 17.47265625 C-81.8793044 25.14417248 -90.81759897 36.77330981 -98 52 C-99.98 52 -101.96 52 -104 52 C-104.96840176 37.47397358 -97.21984509 22.9538701 -88.0234375 12.171875 C-64.75085915 -12.80795813 -29.06773712 -17.17014892 0 0 Z " fill="#3A3738" transform="translate(266,69)"/>
<path d="M0 0 C6.32578849 3.97620991 11.33774916 10.25998524 13.32421875 17.4609375 C14.45063834 26.81449768 12.32121789 33.8777091 6.57421875 41.2734375 C1.89300841 46.39425389 -4.3452237 49.05074494 -11.19140625 49.69921875 C-17.74668247 49.87714768 -22.18503479 49.07955301 -27.67578125 45.4609375 C-29.00609375 44.5946875 -29.00609375 44.5946875 -30.36328125 43.7109375 C-36.63597564 37.60777539 -38.7985205 31.43939791 -39.11328125 22.8359375 C-39.04553377 15.59448439 -37.42618492 10.92440388 -32.67578125 5.4609375 C-23.34661325 -3.26810858 -11.82399015 -5.36934818 0 0 Z " fill="#393637" transform="translate(348.67578125,375.5390625)"/>
<path d="M0 0 C8.30546554 6.88661518 13.02645099 14.53337493 14.0703125 25.23828125 C14.68923216 36.51000537 12.15403667 44.63667159 5.25 53.75 C-2.40949986 61.40949986 -10.9802646 65.302108 -21.875 65.6875 C-31.46914143 65.58129179 -39.68556363 61.81475372 -46.56640625 55.19140625 C-55.27367577 45.82183883 -57.96501596 37.84295754 -57.65625 24.96484375 C-56.81374186 16.01319477 -52.64831253 8.62493314 -46.3125 2.3125 C-32.36786461 -8.59345365 -15.0951052 -10.46166557 0 0 Z M-43.05859375 13.37109375 C-48.07349907 21.13560448 -48.6480182 28.74879038 -46.80859375 37.7890625 C-44.11534798 45.76106998 -39.45892324 49.61460961 -32.30078125 53.33203125 C-31.64464844 53.65558594 -30.98851562 53.97914063 -30.3125 54.3125 C-29.6525 54.6425 -28.9925 54.9725 -28.3125 55.3125 C-19.0934265 56.1319732 -11.34771003 55.03042071 -4 49.1875 C-0.00578366 45.45585166 1.85833887 41.38661365 3.6875 36.3125 C4.1825 35.3225 4.1825 35.3225 4.6875 34.3125 C5.66876905 26.23805754 4.38160297 19.98426379 -0.3125 13.3125 C-5.60489867 7.32046653 -11.2102254 3.94145075 -19.1328125 2.96484375 C-29.11371153 2.46707513 -36.74643637 5.55155551 -43.05859375 13.37109375 Z " fill="#F8F8F8" transform="translate(357.3125,369.6875)"/>
<path d="M0 0 C1.03833984 0.32484375 1.03833984 0.32484375 2.09765625 0.65625 C13.09356317 3.78551995 24.16740062 4.65279161 35.046875 0.65625 C37 0 37 0 40 0 C40.14695312 1.25103516 40.14695312 1.25103516 40.296875 2.52734375 C41.5651672 12.07233589 44.07735734 18.79559557 49 27 C29.86 27 10.72 27 -9 27 C-6.69 22.38 -4.38 17.76 -2 13 C-1.12896865 8.53123046 -0.36415851 4.47394744 0 0 Z " fill="#3A3738" transform="translate(209,235)"/>
<path d="M0 0 C0 12.87 0 25.74 0 39 C-15 39 -15 39 -20 35 C-23.07371739 30.39933537 -22.44663591 25.02724408 -22.5 19.6875 C-22.54125 18.66720703 -22.5825 17.64691406 -22.625 16.59570312 C-22.67885666 11.38843731 -22.52240408 7.9165927 -19.09375 3.83203125 C-13.0621934 -2.23901331 -10.95391875 0 0 0 Z " fill="#3B3839" transform="translate(162,131)"/>
<path d="M0 0 C13.91452514 0 13.91452514 0 19.78540039 4.31103516 C22.65822083 8.30584356 21.4644756 14.65672171 21.4375 19.375 C21.4674707 21.22351563 21.4674707 21.22351563 21.49804688 23.109375 C21.49740234 24.29789063 21.49675781 25.48640625 21.49609375 26.7109375 C21.49887329 28.33974854 21.49887329 28.33974854 21.50170898 30.00146484 C20.88611212 33.6806671 19.56516622 35.3424196 17 38 C11.92281793 40.53859104 5.67646212 39 0 39 C0 26.13 0 13.26 0 0 Z " fill="#383536" transform="translate(296,131)"/>
<path d="M0 0 C6.93 0 13.86 0 21 0 C14.73648409 7.82939488 5.72247656 11.09363205 -4 13 C-3.25465483 8.22979089 -1.78495892 4.75989046 0 0 Z " fill="#403D3E" transform="translate(291,180)"/>
<path d="M0 0 C1.4540625 0.0309375 1.4540625 0.0309375 2.9375 0.0625 C3.5625 2.9375 3.5625 2.9375 3.9375 6.0625 C3.2775 6.7225 2.6175 7.3825 1.9375 8.0625 C-2.61805556 7.50694444 -2.61805556 7.50694444 -4.0625 6.0625 C-4.1875 3.5625 -4.1875 3.5625 -4.0625 1.0625 C-3.0625 0.0625 -3.0625 0.0625 0 0 Z " fill="#3F3C3D" transform="translate(229.0625,198.9375)"/>
</svg>
