<?xml version="1.0" encoding="UTF-8"?>
<svg version="1.1" xmlns="http://www.w3.org/2000/svg" width="522" height="522">
<path d="M0 0 C0.82757813 0.75667969 1.65515625 1.51335937 2.5078125 2.29296875 C4.13205496 3.77209863 5.77213216 5.23408119 7.4296875 6.67578125 C55.84694154 48.98287064 83.82203237 114.03153135 88.80371094 177.3059082 C89.17157781 183.40911239 89.24456563 189.51206745 89.25 195.625 C89.25101212 196.66272049 89.25101212 196.66272049 89.25204468 197.72140503 C89.1736806 248.92976449 74.06588665 300.2340322 45 342.5625 C44.61521484 343.12984863 44.23042969 343.69719727 43.83398438 344.28173828 C37.49859217 353.59040989 30.49465998 362.16723531 23 370.5625 C22.50741699 371.11824707 22.01483398 371.67399414 21.50732422 372.24658203 C-23.3747359 422.6963276 -87.53661734 452.51305378 -154.61499023 457.37060547 C-223.59087894 461.28081452 -291.8591159 439.34925114 -343.8125 393.41015625 C-344.87511749 392.46106902 -345.93762039 391.51185349 -347 390.5625 C-348.020539 389.66502978 -349.04136467 388.76788541 -350.0625 387.87109375 C-354.75959768 383.69093209 -359.17950257 379.46886014 -363.21875 374.6484375 C-364.49031879 373.15936352 -365.8087521 371.70979398 -367.15625 370.2890625 C-412.01702682 322.95220384 -434.30258737 255.62096036 -433.1875 191.125 C-431.73300067 139.92662365 -416.15411486 88.32572168 -386 46.5625 C-385.54689453 45.92296387 -385.09378906 45.28342773 -384.62695312 44.62451172 C-377.18501824 34.15322954 -368.9657528 24.74665226 -360 15.5625 C-359.32243652 14.85915527 -358.64487305 14.15581055 -357.94677734 13.43115234 C-348.84008311 3.98926808 -339.60550206 -4.71306481 -329 -12.4375 C-328.35095703 -12.92025391 -327.70191406 -13.40300781 -327.03320312 -13.90039062 C-317.16828645 -21.22619624 -307.01384164 -27.60115243 -296.13623047 -33.31445312 C-294.15611461 -34.35542832 -292.18926878 -35.41819563 -290.22265625 -36.484375 C-206.04660326 -81.21400231 -97.84830738 -71.76828518 0 0 Z " fill="#373435" transform="translate(433,64.4375)"/>
<path d="M0 0 C3.47171814 1.53196451 6.65109279 3.41547176 9.8359375 5.4609375 C10.53783203 5.90429443 11.23972656 6.34765137 11.96289062 6.80444336 C16.78439786 9.89247821 21.39208103 13.2012654 25.9609375 16.6484375 C37.55259623 25.35400354 50.46136308 31.80501447 63.47070312 38.11523438 C65.39683262 39.05467143 67.31180717 40.01420368 69.2265625 40.9765625 C89.97074349 51.2372379 112.16119879 59.08044636 134.609375 64.60546875 C135.68985107 64.87190186 136.77032715 65.13833496 137.88354492 65.4128418 C140.00912846 65.93243595 142.13682915 66.44346838 144.2668457 66.94458008 C156.19041566 69.81541566 156.19041566 69.81541566 160.4609375 74.0859375 C161.84762236 78.30458654 161.60854257 82.62620589 161.60620117 87.01928711 C161.61123909 88.37407921 161.61123909 88.37407921 161.61637878 89.75624084 C161.6258934 92.75026827 161.62783336 95.74423962 161.62890625 98.73828125 C161.63212274 100.83460004 161.63548711 102.93091861 161.63899231 105.02723694 C161.64498785 109.43474852 161.6468322 113.84224049 161.64624023 118.24975586 C161.64613956 123.83918732 161.65969045 129.42848901 161.67701244 135.01788998 C161.68826321 139.35853118 161.69015535 143.69914255 161.68963051 148.03979683 C161.69079495 150.09622195 161.69512806 152.15264824 161.70296288 154.20905876 C161.89047233 208.59432719 144.54141398 256.51122405 109.4609375 298.0859375 C108.65011719 299.08238281 107.83929688 300.07882812 107.00390625 301.10546875 C100.55387323 308.94196854 93.55285406 316.20747181 86.3984375 323.3984375 C85.48876221 324.31729736 84.57908691 325.23615723 83.6418457 326.18286133 C77.55373035 332.24361436 71.17215754 337.73100588 64.4609375 343.0859375 C63.35661686 344.01472499 62.2556305 344.94751354 61.16015625 345.88671875 C52.6224164 353.00703875 43.55087372 359.26169077 34.3359375 365.4609375 C33.6994931 365.89322662 33.06304871 366.32551575 32.40731812 366.77090454 C7.45921299 383.67203659 7.45921299 383.67203659 -5.5390625 382.0859375 C-27.23553776 376.33895447 -48.7579207 356.29879162 -65.5390625 342.0859375 C-67.04146484 340.86003906 -67.04146484 340.86003906 -68.57421875 339.609375 C-76.21957542 333.30468948 -83.32541116 326.50887541 -90.3515625 319.5234375 C-91.22280762 318.66137695 -92.09405273 317.79931641 -92.99169922 316.91113281 C-98.92941135 310.94518351 -104.31874577 304.68478212 -109.5390625 298.0859375 C-110.40253296 297.01146362 -110.40253296 297.01146362 -111.28344727 295.9152832 C-119.62575055 285.48708418 -126.8818278 274.65614153 -133.5390625 263.0859375 C-133.90338379 262.4657373 -134.26770508 261.84553711 -134.64306641 261.20654297 C-143.50495355 246.04028186 -150.03489536 229.04550562 -154.5390625 212.0859375 C-154.81234375 211.07273437 -155.085625 210.05953125 -155.3671875 209.015625 C-159.68257509 191.79638235 -159.86372921 174.57841719 -159.875 156.94140625 C-159.88144002 154.55389835 -159.88816924 152.16639121 -159.89517212 149.77888489 C-159.90706027 144.81277634 -159.91086078 139.84673698 -159.90966797 134.88061523 C-159.90946306 128.51289957 -159.93697854 122.14562163 -159.97121239 115.77801037 C-159.99339749 110.86503542 -159.9975084 105.95216826 -159.99644852 101.03914833 C-159.99880891 98.68955258 -160.00765696 96.33995405 -160.02311325 93.99040794 C-160.04264055 90.72139283 -160.03699151 87.45335597 -160.02490234 84.18432617 C-160.03614136 83.21553528 -160.04738037 82.24674438 -160.05895996 81.24859619 C-159.99734747 74.7145287 -159.99734747 74.7145287 -157.66641235 71.51737976 C-155.1792512 69.84382918 -153.07382416 69.09895269 -150.1640625 68.375 C-149.10687012 68.10316895 -148.04967773 67.83133789 -146.96044922 67.55126953 C-145.8313916 67.27395996 -144.70233398 66.99665039 -143.5390625 66.7109375 C-141.16615526 66.09833168 -138.79376263 65.48372925 -136.421875 64.8671875 C-135.24915039 64.56554687 -134.07642578 64.26390625 -132.86816406 63.953125 C-91.54568282 53.18915805 -50.02151481 35.55080631 -16.11547852 9.28320312 C-4.29048873 0.14521654 -4.29048873 0.14521654 0 0 Z " fill="#383536" transform="translate(260.5390625,69.9140625)"/>
<path d="M0 0 C2.8945524 1.27988291 3.77576691 3.01893651 5.4375 5.69458008 C6.07437744 6.70601074 6.71125488 7.71744141 7.36743164 8.75952148 C8.04281982 9.85828613 8.71820801 10.95705078 9.4140625 12.08911133 C10.12825368 13.23098997 10.84368346 14.37209479 11.56030273 15.51245117 C13.02465355 17.84582026 14.48289804 20.18282489 15.93603516 22.52319336 C18.95847859 27.37861154 22.02810195 32.20339088 25.1015625 37.02661133 C25.65924316 37.90518799 26.21692383 38.78376465 26.79150391 39.68896484 C31.86666341 47.67241899 37.03842906 55.59195394 42.24243164 63.49194336 C42.84047607 64.40314941 43.43852051 65.31435547 44.0546875 66.25317383 C44.58352539 67.05577637 45.11236328 67.85837891 45.65722656 68.68530273 C49.0150609 74.07088933 49.0150609 74.07088933 49.109375 77.33520508 C47.46558112 81.27671085 44.46324002 82.77296834 40.9140625 84.96411133 C40.26179687 85.38499023 39.60953125 85.80586914 38.9375 86.23950195 C36.98692747 87.48763616 35.01859973 88.70003223 33.0390625 89.90161133 C32.40484375 90.2928418 31.770625 90.68407227 31.1171875 91.0871582 C26.83116976 93.65420925 24.06122128 94.48109119 19.0390625 93.90161133 C18.0490625 93.24161133 17.0590625 92.58161133 16.0390625 91.90161133 C11.73841669 92.17173454 9.21616403 93.95221902 5.8515625 96.52661133 C2.05769506 99.38232133 -1.75073389 102.18872103 -5.6484375 104.90161133 C-6.47730469 105.47911133 -7.30617188 106.05661133 -8.16015625 106.65161133 C-8.75441406 107.06411133 -9.34867188 107.47661133 -9.9609375 107.90161133 C-9.1359375 108.85036133 -8.3109375 109.79911133 -7.4609375 110.77661133 C-4.68671597 114.67316749 -4.28410937 117.81474256 -4.53515625 122.53442383 C-5.34529817 127.03851561 -7.67025757 129.76737745 -11.0234375 132.71411133 C-14.98720023 135.14351429 -18.42257031 134.9872409 -22.9609375 134.90161133 C-23.0228125 135.93286133 -23.0846875 136.96411133 -23.1484375 138.02661133 C-24.2557927 143.30784382 -26.4254885 145.97816726 -30.7734375 149.27661133 C-34.19050178 150.25291541 -37.41649193 150.01975951 -40.9609375 149.90161133 C-41.0228125 150.76786133 -41.0846875 151.63411133 -41.1484375 152.52661133 C-42.17419625 156.78745535 -43.87981379 158.82048762 -46.9609375 161.90161133 C-51.51530391 164.53834977 -56.31623033 164.44411536 -61.3984375 163.40161133 C-61.9140625 163.23661133 -62.4296875 163.07161133 -62.9609375 162.90161133 C-63.0434375 163.95348633 -63.1259375 165.00536133 -63.2109375 166.08911133 C-64.0289699 170.24744267 -64.99828256 171.93895639 -67.9609375 174.90161133 C-71.01441576 176.80441041 -72.91996043 177.09236663 -76.4609375 176.58911133 C-77.21375 176.48985352 -77.9665625 176.3905957 -78.7421875 176.28833008 C-80.9609375 175.90161133 -80.9609375 175.90161133 -82.9921875 175.23364258 C-85.5962152 174.79447124 -86.65970424 175.68537017 -88.9609375 176.90161133 C-93.92445454 177.60600483 -97.87497866 177.4347184 -102.3984375 175.21411133 C-105.04517901 172.82558851 -106.58563458 171.1870572 -107.9609375 167.90161133 C-108.1484375 164.08911133 -108.1484375 164.08911133 -107.9609375 160.90161133 C-109.1571875 160.98411133 -110.3534375 161.06661133 -111.5859375 161.15161133 C-116.13182874 161.11948489 -118.53289254 160.01801583 -121.9609375 156.90161133 C-124.29449064 153.29982279 -125.9609375 150.23546088 -125.9609375 145.90161133 C-127.1365625 146.00473633 -128.3121875 146.10786133 -129.5234375 146.21411133 C-133.72160127 146.19178067 -136.22269619 145.14078818 -139.484375 142.53442383 C-142.72608551 138.94967517 -143.9609375 134.65827065 -143.9609375 129.90161133 C-145.1159375 129.88098633 -146.2709375 129.86036133 -147.4609375 129.83911133 C-152.92301887 129.18677719 -156.42478366 125.94041047 -159.9609375 121.90161133 C-161.30748094 117.86198102 -161.54102777 114.12585845 -160.9609375 109.90161133 C-158.8984375 107.02661133 -158.8984375 107.02661133 -156.9609375 104.90161133 C-158.30138774 100.88026062 -160.28622978 99.99609439 -163.7734375 97.65161133 C-164.83175781 96.92458008 -165.89007813 96.19754883 -166.98046875 95.44848633 C-169.73036108 93.68057249 -169.73036108 93.68057249 -172.16015625 94.10473633 C-172.75441406 94.36770508 -173.34867188 94.63067383 -173.9609375 94.90161133 C-177.70309972 96.14899873 -180.0329858 96.31925674 -183.66015625 94.68676758 C-186.83479492 92.85668176 -189.90059856 90.91704718 -192.9609375 88.90161133 C-194.08445215 88.17476547 -195.20815061 87.44820365 -196.33203125 86.72192383 C-204.48380335 81.37874547 -204.48380335 81.37874547 -206.9609375 78.90161133 C-206.62887101 74.95139499 -205.17803273 72.24276097 -203.07421875 68.93676758 C-202.47279053 67.98334473 -201.8713623 67.02992188 -201.25170898 66.04760742 C-200.59887939 65.03005371 -199.9460498 64.0125 -199.2734375 62.96411133 C-198.59933838 61.90015137 -197.92523926 60.83619141 -197.23071289 59.73999023 C-195.14785295 56.45597627 -193.05483039 53.17859841 -190.9609375 49.90161133 C-189.75447462 48.00233762 -188.54870801 46.10262138 -187.34375 44.20239258 C-185.05621178 40.59733798 -182.76295656 36.99602731 -180.46484375 33.39770508 C-178.00353622 29.54246893 -175.55482878 25.67954741 -173.11328125 21.81176758 C-172.48107666 20.81226074 -171.84887207 19.81275391 -171.19750977 18.78295898 C-169.98866819 16.87132466 -168.7819975 14.95831519 -167.57788086 13.04370117 C-164.89620435 8.8094751 -162.22029184 4.72539045 -158.9609375 0.90161133 C-152.80394454 1.25796462 -148.76577967 4.27390544 -143.8359375 7.65161133 C-143.03800781 8.17754883 -142.24007812 8.70348633 -141.41796875 9.24536133 C-137.29692859 12.02482748 -133.55950196 14.55909051 -130.9609375 18.90161133 C-130.5703125 21.57739258 -130.5703125 21.57739258 -130.7109375 24.21411133 C-130.74703125 25.09711914 -130.783125 25.98012695 -130.8203125 26.88989258 C-130.86671875 27.55375977 -130.913125 28.21762695 -130.9609375 28.90161133 C-130.32027344 29.10915039 -129.67960937 29.31668945 -129.01953125 29.53051758 C-124.68116102 31.47530423 -120.93488757 34.15378112 -117.0234375 36.83911133 C-112.12417023 40.19504912 -107.36308692 43.4129807 -101.9609375 45.90161133 C-100.72730469 44.49008789 -100.72730469 44.49008789 -99.46875 43.05004883 C-85.10142513 26.88924221 -85.10142513 26.88924221 -76.16796875 25.45239258 C-69.38185687 25.19242264 -63.17715019 26.69290593 -56.609375 28.22973633 C-46.87753617 30.02189509 -36.73533238 29.03958662 -26.9609375 27.90161133 C-27.0434375 26.70536133 -27.1259375 25.50911133 -27.2109375 24.27661133 C-27.52030195 19.79082682 -25.72766633 17.34897313 -22.9609375 13.90161133 C-20.62937826 11.97925602 -18.14725873 10.37491611 -15.5859375 8.77661133 C-14.93882812 8.36024414 -14.29171875 7.94387695 -13.625 7.51489258 C-12.34905402 6.69427409 -11.06820416 5.88122311 -9.78222656 5.07641602 C-8.59414342 4.31005461 -7.42729864 3.5094039 -6.28808594 2.67211914 C-2.4696426 -0.1239126 -2.4696426 -0.1239126 0 0 Z " fill="#F5F5F5" transform="translate(339.9609375,200.098388671875)"/>
<path d="M0 0 C3.47171814 1.53196451 6.65109279 3.41547176 9.8359375 5.4609375 C10.53783203 5.90429443 11.23972656 6.34765137 11.96289062 6.80444336 C16.78439786 9.89247821 21.39208103 13.2012654 25.9609375 16.6484375 C37.55259623 25.35400354 50.46136308 31.80501447 63.47070312 38.11523438 C65.39683262 39.05467143 67.31180717 40.01420368 69.2265625 40.9765625 C89.97074349 51.2372379 112.16119879 59.08044636 134.609375 64.60546875 C135.68985107 64.87190186 136.77032715 65.13833496 137.88354492 65.4128418 C140.00912846 65.93243595 142.13682915 66.44346838 144.2668457 66.94458008 C156.19041566 69.81541566 156.19041566 69.81541566 160.4609375 74.0859375 C161.84762236 78.30458654 161.60854257 82.62620589 161.60620117 87.01928711 C161.61123909 88.37407921 161.61123909 88.37407921 161.61637878 89.75624084 C161.6258934 92.75026827 161.62783336 95.74423962 161.62890625 98.73828125 C161.63212274 100.83460004 161.63548711 102.93091861 161.63899231 105.02723694 C161.64498785 109.43474852 161.6468322 113.84224049 161.64624023 118.24975586 C161.64613956 123.83918732 161.65969045 129.42848901 161.67701244 135.01788998 C161.68826321 139.35853118 161.69015535 143.69914255 161.68963051 148.03979683 C161.69079495 150.09622195 161.69512806 152.15264824 161.70296288 154.20905876 C161.89047233 208.59432719 144.54141398 256.51122405 109.4609375 298.0859375 C108.65011719 299.08238281 107.83929688 300.07882812 107.00390625 301.10546875 C100.55387323 308.94196854 93.55285406 316.20747181 86.3984375 323.3984375 C85.48876221 324.31729736 84.57908691 325.23615723 83.6418457 326.18286133 C77.55373035 332.24361436 71.17215754 337.73100588 64.4609375 343.0859375 C63.35661686 344.01472499 62.2556305 344.94751354 61.16015625 345.88671875 C52.6224164 353.00703875 43.55087372 359.26169077 34.3359375 365.4609375 C33.6994931 365.89322662 33.06304871 366.32551575 32.40731812 366.77090454 C7.45921299 383.67203659 7.45921299 383.67203659 -5.5390625 382.0859375 C-27.23553776 376.33895447 -48.7579207 356.29879162 -65.5390625 342.0859375 C-67.04146484 340.86003906 -67.04146484 340.86003906 -68.57421875 339.609375 C-76.21957542 333.30468948 -83.32541116 326.50887541 -90.3515625 319.5234375 C-91.22280762 318.66137695 -92.09405273 317.79931641 -92.99169922 316.91113281 C-98.92941135 310.94518351 -104.31874577 304.68478212 -109.5390625 298.0859375 C-110.40253296 297.01146362 -110.40253296 297.01146362 -111.28344727 295.9152832 C-119.62575055 285.48708418 -126.8818278 274.65614153 -133.5390625 263.0859375 C-133.90338379 262.4657373 -134.26770508 261.84553711 -134.64306641 261.20654297 C-143.50495355 246.04028186 -150.03489536 229.04550562 -154.5390625 212.0859375 C-154.81234375 211.07273437 -155.085625 210.05953125 -155.3671875 209.015625 C-159.68257509 191.79638235 -159.86372921 174.57841719 -159.875 156.94140625 C-159.88144002 154.55389835 -159.88816924 152.16639121 -159.89517212 149.77888489 C-159.90706027 144.81277634 -159.91086078 139.84673698 -159.90966797 134.88061523 C-159.90946306 128.51289957 -159.93697854 122.14562163 -159.97121239 115.77801037 C-159.99339749 110.86503542 -159.9975084 105.95216826 -159.99644852 101.03914833 C-159.99880891 98.68955258 -160.00765696 96.33995405 -160.02311325 93.99040794 C-160.04264055 90.72139283 -160.03699151 87.45335597 -160.02490234 84.18432617 C-160.03614136 83.21553528 -160.04738037 82.24674438 -160.05895996 81.24859619 C-159.99734747 74.7145287 -159.99734747 74.7145287 -157.66641235 71.51737976 C-155.1792512 69.84382918 -153.07382416 69.09895269 -150.1640625 68.375 C-149.10687012 68.10316895 -148.04967773 67.83133789 -146.96044922 67.55126953 C-145.8313916 67.27395996 -144.70233398 66.99665039 -143.5390625 66.7109375 C-141.16615526 66.09833168 -138.79376263 65.48372925 -136.421875 64.8671875 C-135.24915039 64.56554687 -134.07642578 64.26390625 -132.86816406 63.953125 C-91.54568282 53.18915805 -50.02151481 35.55080631 -16.11547852 9.28320312 C-4.29048873 0.14521654 -4.29048873 0.14521654 0 0 Z M-5.234375 19.4453125 C-5.94045898 19.97842041 -6.64654297 20.51152832 -7.37402344 21.06079102 C-8.50759277 21.93948853 -8.50759277 21.93948853 -9.6640625 22.8359375 C-18.63367453 29.5377574 -27.84627027 35.48916347 -37.5390625 41.0859375 C-38.36325684 41.56385742 -39.18745117 42.04177734 -40.03662109 42.53417969 C-70.55470091 60.0804852 -104.27431763 74.30324852 -138.79541016 81.65063477 C-140.05777496 81.9197316 -141.32013977 82.18882843 -142.62075806 82.46607971 C-144.06531876 82.77290932 -144.06531876 82.77290932 -145.5390625 83.0859375 C-145.47751181 96.0743489 -145.40016556 109.06256498 -145.30334759 122.05076408 C-145.25885944 128.08347073 -145.21955732 134.11611318 -145.19262695 140.14892578 C-145.16637707 145.98461348 -145.12582585 151.8200512 -145.07587624 157.65558243 C-145.05935276 159.86796046 -145.04774907 162.08038158 -145.04144859 164.29281235 C-144.89272767 211.77135197 -126.54427614 253.74099795 -96.5390625 290.0859375 C-96.08096191 290.64700195 -95.62286133 291.20806641 -95.15087891 291.78613281 C-74.84939092 316.55437154 -34.86741918 361.75331512 -1.4765625 366.5234375 C16.91491471 364.47994003 33.61288291 348.36183106 47.4609375 337.0859375 C48.3890625 336.33957031 49.3171875 335.59320313 50.2734375 334.82421875 C53.02113891 332.59969886 55.74319957 330.34694447 58.4609375 328.0859375 C59.21697266 327.4674292 59.21697266 327.4674292 59.98828125 326.83642578 C74.76066268 314.73228317 88.881311 301.3088533 100.4609375 286.0859375 C101.21761719 285.1578125 101.97429687 284.2296875 102.75390625 283.2734375 C134.89630177 243.21041988 146.71221357 197.89907263 146.55859375 147.3671875 C146.55672301 145.5291752 146.55530222 143.6911624 146.55430603 141.85314941 C146.55053241 137.07263757 146.54074775 132.29215729 146.52960205 127.51165771 C146.51927551 122.61064073 146.5147846 117.70961853 146.50976562 112.80859375 C146.49911953 103.23436131 146.48210707 93.66015206 146.4609375 84.0859375 C145.19293137 83.60446872 143.92435067 83.12451297 142.65553284 82.64518738 C141.9491546 82.37774814 141.24277636 82.1103089 140.51499271 81.83476543 C137.83180991 80.85658227 135.11805899 80.07539884 132.36328125 79.32421875 C130.68468018 78.859552 130.68468018 78.859552 128.97216797 78.38549805 C127.79283691 78.05976807 126.61350586 77.73403809 125.3984375 77.3984375 C83.58326112 65.59695121 41.90681343 48.91742756 7.53320312 21.83007812 C1.36466742 16.80228102 1.36466742 16.80228102 -5.234375 19.4453125 Z " fill="#FAFAFA" transform="translate(260.5390625,69.9140625)"/>
<path d="M0 0 C3.83517454 0.64052189 6.44586706 2.4394953 9.640625 4.59765625 C11.24550781 5.67563477 11.24550781 5.67563477 12.8828125 6.77539062 C14.00529312 7.53763557 15.12768788 8.30000697 16.25 9.0625 C17.38766375 9.82930609 18.52568091 10.59558812 19.6640625 11.36132812 C22.44623085 13.23575511 25.2246679 15.11547223 28 17 C25.896194 21.40309839 22.98086115 24.81719685 19.875 28.5625 C15.36445924 34.42620299 15.09481244 39.72117219 16 47 C18.13370671 52.6776745 21.64423226 56.15118737 27 59 C31.37194747 60.74877899 36.53285333 60.75066284 41.015625 59.38671875 C45.87737911 57.21424201 49.14887542 54.06524732 52.78125 50.23828125 C56.84540235 46.13835291 61.26434174 42.30501513 66 39 C69 39 69 39 70.47265625 40.35546875 C70.99730469 40.96003906 71.52195312 41.56460938 72.0625 42.1875 C76.09184332 46.36953423 80.48501596 49.15148735 86 51 C86.96607178 50.99939575 86.96607178 50.99939575 87.95166016 50.9987793 C93.52951886 51.01175106 96.1643061 52.58086348 100.2265625 56.41015625 C102.04688811 58.27413793 103.84593104 60.15910129 105.625 62.0625 C106.52734375 62.99255859 107.4296875 63.92261719 108.359375 64.88085938 C112.95568368 69.64802209 117.41458408 74.51927216 121.73583984 79.53686523 C122.46494985 80.38073473 123.21141991 81.21141991 124 82 C124.59259259 89.22962963 124.59259259 89.22962963 122.125 92.4375 C118.58447982 95.04082366 116.40886465 95.43330365 112 95 C109.5078125 93.3125 109.5078125 93.3125 107.125 91 C106.26777344 90.18015625 105.41054688 89.3603125 104.52734375 88.515625 C103.69332031 87.68546875 102.85929688 86.8553125 102 86 C101.25878906 85.27296875 100.51757812 84.5459375 99.75390625 83.796875 C97.292079 81.35831644 94.85659143 78.89800424 92.46484375 76.390625 C91.34364346 75.22693024 90.17673053 74.10751109 89 73 C88.34 73 87.68 73 87 73 C87.22403309 77.02080448 87.71884102 78.69223292 90.4765625 81.7109375 C91.51533354 82.61146082 92.56540904 83.49906935 93.625 84.375 C94.71869018 85.33173463 95.80984092 86.29137996 96.8984375 87.25390625 C97.42920898 87.71941895 97.95998047 88.18493164 98.50683594 88.66455078 C106.53517434 95.84489922 106.53517434 95.84489922 107.6875 101.1875 C106.84171748 104.64751939 105.46735101 106.46007984 103 109 C99.79745853 110.60127074 97.54685436 110.40701607 94 110 C89.07609048 107.05434993 85.45419713 102.34166474 81.76171875 98.03515625 C79.98425312 95.98180904 78.18043655 93.97148954 76.3125 92 C75.77238281 91.4225 75.23226562 90.845 74.67578125 90.25 C72.81406085 88.60139648 72.81406085 88.60139648 69 89 C69.57829012 92.48742394 70.7345324 94.07671832 73.2734375 96.49609375 C74.2634375 97.45805664 74.2634375 97.45805664 75.2734375 98.43945312 C75.96695313 99.09880859 76.66046875 99.75816406 77.375 100.4375 C87.59215241 110.20333083 87.59215241 110.20333083 88.4375 116 C87.8789517 119.8300455 86.8386597 121.38544501 84 124 C81.25 125.1875 81.25 125.1875 78 125 C71.83971072 121.87427182 67.50781509 116.39882625 63.17578125 111.171875 C60.87363926 108.87386612 59.07462258 107.96923304 56 107 C56 107.66 56 108.32 56 109 C53.03 108.67 50.06 108.34 47 108 C46.90203125 107.33613281 46.8040625 106.67226563 46.703125 105.98828125 C45.54270567 98.63644788 45.54270567 98.63644788 41 93 C37.72248496 91.73228192 34.41887079 90.8025212 31 90 C30.91363281 89.33613281 30.82726562 88.67226563 30.73828125 87.98828125 C29.81167249 82.16509776 28.91984572 78.71988335 24 75 C20.85069107 73.95023036 18.61185544 73.89868405 15.3125 73.9375 C14.31863281 73.94652344 13.32476562 73.95554687 12.30078125 73.96484375 C11.54152344 73.97644531 10.78226563 73.98804688 10 74 C9.72027344 73.31292969 9.44054687 72.62585938 9.15234375 71.91796875 C6.53000982 66.00117364 6.53000982 66.00117364 1.6875 61.875 C-2.63554252 60.8491933 -5.57110844 60.49996386 -10 61 C-10.86625 61.70125 -11.7325 62.4025 -12.625 63.125 C-13.40875 63.74375 -14.1925 64.3625 -15 65 C-20.05448757 63.89614639 -23.76495103 61.35060107 -27.875 58.375 C-28.46796875 57.95476562 -29.0609375 57.53453125 -29.671875 57.1015625 C-31.11931674 56.07434578 -32.56033919 55.0380937 -34 54 C-32.38245856 49.20315298 -29.71196494 45.38677697 -26.875 41.25 C-20.90683681 32.43187124 -15.15289004 23.48520133 -9.43310547 14.50488281 C-6.3327571 9.63896195 -3.23091678 4.78043809 0 0 Z " fill="#393637" transform="translate(205,234)"/>
<path d="M0 0 C5.40082174 1.27042741 10.41760053 1.80264744 15.9375 1.8125 C16.93378418 1.82023438 16.93378418 1.82023438 17.95019531 1.828125 C23.83734187 1.74759735 29.49087866 0.66193382 35.25 -0.5 C35.76832397 0.3189978 35.76832397 0.3189978 36.29711914 1.15454102 C44.46386391 14.04848439 52.71784031 26.88181401 61.0703125 39.65625 C61.62106445 40.50058594 62.17181641 41.34492188 62.73925781 42.21484375 C64.02287783 44.15645386 65.34402992 46.06300895 66.6796875 47.96875 C68.25 50.5 68.25 50.5 68.25 53.5 C64.77445124 56.59766363 60.83203276 59.11290219 57 61.75 C55.93652344 62.50796875 54.87304688 63.2659375 53.77734375 64.046875 C52.75253906 64.7584375 51.72773438 65.47 50.671875 66.203125 C49.72924805 66.85958008 48.78662109 67.51603516 47.81542969 68.19238281 C45.25 69.5 45.25 69.5 43.15429688 69.4309082 C40.74902309 68.25509937 39.23055403 66.81879324 37.359375 64.90234375 C36.65039062 64.18369141 35.94140625 63.46503906 35.2109375 62.72460938 C34.48132813 61.96986328 33.75171875 61.21511719 33 60.4375 C32.25492187 59.67888672 31.50984375 58.92027344 30.7421875 58.13867188 C28.90453306 56.26567793 27.07424276 54.38604389 25.25 52.5 C29.91666667 50.16666667 34.58333333 47.83333333 39.25 45.5 C39.25 44.51 39.25 43.52 39.25 42.5 C34.4959141 42.16831959 32.19353797 42.90556713 28.25 45.5 C21.79632341 47.62215491 13.75946186 47.75611886 7.390625 45.4765625 C1.15916336 41.97378437 -3.33377504 37.05112075 -7.75 31.5 C-13.69447258 34.53811376 -18.06206374 38.34448207 -22.8125 43 C-35.19963746 55.07072052 -35.19963746 55.07072052 -43.0625 55.8125 C-48.33262786 55.36587899 -51.1205373 53.29240897 -54.625 49.4375 C-56.50943509 44.51703059 -57.16384733 40.65863215 -55.75 35.5 C-52.92745494 30.88009198 -49.0672925 27.01184667 -45.32324219 23.13525391 C-43.1300227 20.85558535 -41.03758744 18.49032339 -38.9375 16.125 C-38.22078125 15.33996094 -37.5040625 14.55492187 -36.765625 13.74609375 C-35.45466661 12.28523896 -34.17134508 10.79893731 -32.921875 9.28515625 C-23.38985069 -2.24344071 -14.47591019 -3.46090726 0 0 Z " fill="#383536" transform="translate(281.75,233.5)"/>
<path d="M0 0 C5.1379526 1.43072219 9.04632737 3.68273247 13.375 6.6875 C14.33599609 7.30141602 14.33599609 7.30141602 15.31640625 7.92773438 C18.52130123 10.15202716 19.88513253 11.46056713 20.70703125 15.3203125 C19.80149306 20.03311349 17.9224368 23.21275419 15.3125 27.1875 C14.82136719 27.962146 14.33023438 28.73679199 13.82421875 29.53491211 C12.23272582 32.03436576 10.61819987 34.51776872 9 37 C7.92004643 38.67413966 6.84061944 40.34861912 5.76171875 42.0234375 C3.05563037 46.21140244 0.32959041 50.38599209 -2.40234375 54.55712891 C-4.94650598 58.44724004 -7.47419955 62.34795099 -10 66.25 C-10.43248047 66.91652588 -10.86496094 67.58305176 -11.31054688 68.26977539 C-14.25508967 72.81693498 -17.14117108 77.39850196 -20 82 C-25.50148814 81.13986764 -29.16644964 78.63947663 -33.75 75.625 C-34.52988281 75.13 -35.30976563 74.635 -36.11328125 74.125 C-36.85449219 73.64289063 -37.59570312 73.16078125 -38.359375 72.6640625 C-39.03452148 72.22529785 -39.70966797 71.7865332 -40.40527344 71.33447266 C-42 70 -42 70 -43 67 C-41.52545338 64.38672483 -40.0005379 61.97072192 -38.3125 59.5 C-37.28531669 57.95648831 -36.2593164 56.4121888 -35.234375 54.8671875 C-34.69876953 54.06506836 -34.16316406 53.26294922 -33.61132812 52.43652344 C-31.03326833 48.53818453 -28.54810997 44.5826822 -26.0625 40.625 C-25.05864213 39.03252158 -24.0547355 37.44007391 -23.05078125 35.84765625 C-21.50990331 33.40020449 -19.96994921 30.95217874 -18.43115234 28.50341797 C-12.40746243 18.91815373 -6.35793406 9.36860283 0 0 Z " fill="#393637" transform="translate(183,208)"/>
<path d="M0 0 C2.67712199 2.3459895 4.33033016 5.15974135 6.11328125 8.1953125 C6.99299071 9.64692628 7.87463824 11.09736662 8.7578125 12.546875 C9.48991943 13.7539209 9.48991943 13.7539209 10.23681641 14.98535156 C13.353626 20.0587054 16.58409251 25.05993397 19.80078125 30.0703125 C20.48720703 31.1413623 21.17363281 32.21241211 21.88085938 33.31591797 C25.94726993 39.65785788 30.02267405 45.99395121 34.11328125 52.3203125 C34.5424585 52.98409912 34.97163574 53.64788574 35.41381836 54.33178711 C35.81479736 54.95061768 36.21577637 55.56944824 36.62890625 56.20703125 C37.00208984 56.78501465 37.37527344 57.36299805 37.75976562 57.95849609 C38.86045015 59.62851699 40.01040905 61.2657138 41.16015625 62.90234375 C42.86328125 65.6328125 42.86328125 65.6328125 42.86328125 68.6328125 C40.54308723 70.50210653 38.28358003 72.13381406 35.80078125 73.7578125 C35.14400391 74.21285156 34.48722656 74.66789062 33.81054688 75.13671875 C29.59478145 77.93615313 26.08237413 79.81723274 20.86328125 79.6328125 C16.42030771 76.32365416 13.81888273 71.68200558 10.98828125 67.0078125 C4.23864564 56.0814947 -2.84056605 45.37751937 -9.91522217 34.66009521 C-10.93849594 33.10985843 -11.96141315 31.55938623 -12.9839325 30.00865173 C-13.92931896 28.57513139 -14.87573871 27.14229181 -15.82331848 25.71022034 C-20.78948351 18.18131295 -20.78948351 18.18131295 -20.13671875 12.6328125 C-16.72987117 8.72847701 -12.94089681 5.95294812 -8.57421875 3.1953125 C-8.01025391 2.81955078 -7.44628906 2.44378906 -6.86523438 2.05664062 C-2.80743815 -0.48244824 -2.80743815 -0.48244824 0 0 Z " fill="#393637" transform="translate(339.13671875,208.3671875)"/>
<path d="M0 0 C2.1875 0.9375 2.1875 0.9375 3.1875 1.9375 C3.62816078 5.183887 3.47661113 6.53698198 1.53515625 9.2265625 C0.78105469 9.99742187 0.02695312 10.76828125 -0.75 11.5625 C-4.0731123 15.06734501 -7.22980708 18.60515205 -10.25 22.375 C-14.11191675 27.15034402 -18.18924224 31.67417685 -22.34765625 36.19140625 C-24.73957297 38.85625166 -27.00504884 41.58581825 -29.25 44.375 C-47.75169223 67.28812774 -47.75169223 67.28812774 -55.78125 68.1484375 C-63.59620884 68.06588512 -67.55088781 63.14322253 -72.8125 57.9375 C-75.52347652 55.63817655 -78.24228174 53.34968132 -80.9765625 51.078125 C-82.8125 48.9375 -82.8125 48.9375 -83.2109375 46.296875 C-82.8125 43.9375 -82.8125 43.9375 -80.8125 41.9375 C-77.36899422 41.77352353 -75.42953048 42.38684332 -72.8515625 44.6875 C-71.4799488 46.11692117 -70.11414352 47.55193627 -68.75390625 48.9921875 C-65.24243582 52.51072327 -62.20643103 53.78815025 -57.3125 54.3125 C-50.4154751 53.57353305 -46.44184776 49.97306372 -42 44.9375 C-41.48010498 44.36153076 -40.96020996 43.78556152 -40.42456055 43.19213867 C-36.45741875 38.76164545 -32.68095668 34.18723616 -28.95703125 29.55078125 C-26.11315893 26.08529749 -23.09513065 22.79525226 -20.07421875 19.484375 C-17.67342343 16.78088873 -15.39510865 14.00137002 -13.125 11.1875 C-3.91639862 -0.08703108 -3.91639862 -0.08703108 0 0 Z " fill="#F8F8F8" transform="translate(311.8125,140.0625)"/>
<path d="M0 0 C2.45512617 0.64086014 3.48783609 1.37835151 5.1875 3.2421875 C7.19921168 6.68156553 7.67689269 7.72593193 7.125 11.5546875 C4.537037 15.2576459 1.30735265 18.35703507 -1.875 21.5546875 C-2.49375 22.20824219 -3.1125 22.86179687 -3.75 23.53515625 C-6.65050485 26.36180565 -8.8972374 27.9519266 -13 28.3046875 C-16.875 27.5546875 -16.875 27.5546875 -19.875 24.9296875 C-22.08883207 21.19384589 -22.39736553 19.79224463 -21.875 15.5546875 C-19.33431554 11.80012047 -16.08843339 8.74160742 -12.875 5.5546875 C-12.34132812 4.97589844 -11.80765625 4.39710938 -11.2578125 3.80078125 C-7.83314659 0.40513794 -4.64536578 -0.26679466 0 0 Z " fill="#3A3738" transform="translate(223.875,312.4453125)"/>
<path d="M0 0 C3.57632467 2.51103647 4.78325846 4.04272488 5.75 8.3125 C4.66806333 13.63202194 1.81649796 16.29553231 -2 20 C-2.58652344 20.61875 -3.17304688 21.2375 -3.77734375 21.875 C-6.89044923 24.92457272 -8.20061641 25.97290225 -12.6875 26.125 C-16.31938276 24.89153038 -17.84012682 24.15673772 -20 21 C-21.3125 17.875 -21.3125 17.875 -21 14 C-15.99247516 6.85739864 -9.36983398 -1.50586618 0 0 Z " fill="#3A3738" transform="translate(241,330)"/>
<path d="M0 0 C2.69990662 1.79993774 4.5418865 3.083773 6 6 C6.52253733 9.135224 6.42974866 11.22674982 4.87109375 14.03125 C1.81935075 18.3020966 -1.23536228 21.61768114 -6 24 C-9.99014586 24.65145239 -11.42974748 24.38016835 -14.8125 22.125 C-17.49191954 19.5221353 -17.90840991 18.57243804 -18.5 14.875 C-17.67298804 8.4656573 -13.38060386 4.85803228 -8.4375 1 C-5.32896852 -0.27529497 -3.33239055 -0.48597362 0 0 Z " fill="#3A3738" transform="translate(203,300)"/>
<path d="M0 0 C3.62043986 2.01135548 4.76208225 3.34885667 6.1875 7.25 C5.86898726 13.62025486 1.84994074 17.05269395 -2.375 21.5 C-5.9849802 23.56284583 -8.94181241 23.94091043 -13 23 C-16 20.875 -16 20.875 -18 18 C-18.53247038 14.15145168 -18.36453133 12.52883791 -16.13671875 9.296875 C-14.92435547 8.03617187 -14.92435547 8.03617187 -13.6875 6.75 C-12.88699219 5.89921875 -12.08648437 5.0484375 -11.26171875 4.171875 C-7.46294143 0.52399902 -5.24735187 -0.62968222 0 0 Z " fill="#3C393A" transform="translate(255,348)"/>
<path d="M0 0 C3.77991191 1.71814178 5.24974616 3.14944154 7 7 C7.5187056 10.04739539 7.56647957 11.97660686 6.05078125 14.71484375 C4.8125 16.375 4.8125 16.375 2 19 C-0.8125 19.375 -0.8125 19.375 -3 19 C-3.33 18.01 -3.66 17.02 -4 16 C-3.360625 15.154375 -2.72125 14.30875 -2.0625 13.4375 C0.9665165 9.32594839 0.34783803 4.88905675 0 0 Z " fill="#444243" transform="translate(265,352)"/>
</svg>
