<?xml version="1.0" standalone="no"?>
<!DOCTYPE svg PUBLIC "-//W3C//DTD SVG 20010904//EN"
 "http://www.w3.org/TR/2001/REC-SVG-20010904/DTD/svg10.dtd">
<svg version="1.0" xmlns="http://www.w3.org/2000/svg"
 width="1254.000000pt" height="923.000000pt" viewBox="0 0 1254.000000 923.000000"
 preserveAspectRatio="xMidYMid meet">

<g transform="translate(0.000000,923.000000) scale(0.100000,-0.100000)"
fill="#000000" stroke="none">
<path d="M3063 9205 c-86 -24 -154 -64 -224 -134 -70 -70 -106 -130 -133 -220
-13 -45 -16 -107 -16 -339 l0 -283 23 3 22 3 5 290 c5 271 7 294 28 346 45
113 110 188 210 242 112 61 -75 57 2722 57 2264 0 2563 -2 2615 -15 168 -44
298 -182 334 -353 15 -75 16 -4523 0 -4608 -28 -154 -143 -288 -297 -347 -57
-22 -62 -22 -875 -25 l-818 -3 3 -22 3 -22 795 -3 c529 -1 812 1 846 8 139 29
281 136 343 258 65 130 61 -50 61 2454 0 1624 -3 2292 -11 2330 -28 133 -135
277 -255 340 -116 62 79 58 -2749 57 -2187 0 -2588 -2 -2632 -14z"/>
<path d="M3473 8770 c-49 -11 -119 -57 -149 -95 -124 -163 -22 -401 181 -422
158 -16 290 103 288 262 -1 79 -27 138 -86 192 -65 60 -150 83 -234 63z m157
-72 c163 -83 139 -333 -37 -384 -102 -30 -199 12 -247 107 -40 81 -31 160 26
225 66 75 170 96 258 52z"/>
<path d="M4111 8741 c-8 -5 -11 -16 -8 -25 6 -15 53 -16 489 -14 475 3 483 3
483 23 0 20 -7 20 -475 22 -265 2 -481 -1 -489 -6z"/>
<path d="M5394 8735 c-3 -8 -3 -19 1 -25 9 -14 2191 -14 2200 0 4 6 1 17 -5
25 -19 22 -2188 22 -2196 0z"/>
<path d="M4103 8314 c-3 -8 -1 -20 4 -25 5 -5 114 -8 269 -7 251 3 259 4 259
23 0 19 -8 20 -263 23 -232 2 -263 0 -269 -14z"/>
<path d="M4893 8314 c-3 -8 -1 -20 4 -25 5 -5 259 -8 649 -7 631 3 639 3 639
23 0 20 -8 20 -643 23 -577 2 -643 1 -649 -14z"/>
<path d="M6423 8314 c-3 -8 -1 -20 4 -25 5 -5 152 -8 369 -7 351 3 359 3 359
23 0 20 -8 20 -363 23 -323 2 -363 1 -369 -14z"/>
<path d="M11910 8195 c-97 -31 -172 -125 -174 -220 l-1 -50 45 0 45 0 5 47 c7
60 34 97 90 126 145 74 305 -58 242 -200 -15 -35 -38 -59 -98 -104 -98 -74
-115 -104 -112 -199 l3 -70 33 -3 c50 -5 62 11 62 80 0 66 -5 60 126 173 69
60 94 109 94 190 0 101 -54 181 -148 221 -53 22 -158 27 -212 9z"/>
<path d="M2519 7935 c-254 -48 -487 -169 -680 -353 -107 -102 -165 -174 -218
-274 -163 -303 -181 -787 -44 -1182 73 -211 199 -406 331 -511 l63 -50 -3
-177 -3 -178 -27 -27 c-26 -25 -34 -27 -155 -34 -298 -18 -553 -101 -787 -256
-131 -86 -328 -282 -410 -407 -79 -120 -159 -289 -195 -416 -36 -123 -371
-2025 -371 -2105 0 -164 120 -326 279 -375 81 -26 92 -26 373 7 131 14 240 25
242 22 2 -2 -41 -354 -97 -781 l-102 -778 -340 0 c-187 0 -346 -4 -353 -9 -8
-5 -12 -17 -10 -27 3 -19 144 -19 6258 -19 6114 0 6255 0 6258 19 6 27 -15 36
-90 36 l-68 0 0 338 c0 899 -77 2882 -125 3217 -58 409 -295 751 -714 1027
-99 65 -307 175 -398 210 l-43 16 0 155 0 155 68 21 c194 59 343 220 420 454
82 246 100 626 41 837 -24 86 -67 172 -110 220 l-30 33 38 -7 c87 -16 121 -18
128 -7 13 22 -16 39 -101 56 -47 10 -87 22 -90 26 -3 5 45 76 106 159 60 82
110 156 110 164 0 21 -27 27 -44 11 -8 -8 -55 -71 -106 -140 -50 -69 -92 -125
-93 -125 -1 0 -2 82 -2 183 0 172 -2 186 -28 260 -153 435 -595 617 -1409 577
-369 -18 -586 -58 -754 -140 -142 -69 -203 -150 -204 -267 0 -129 68 -245 244
-418 l122 -120 -22 -165 c-44 -332 -58 -533 -58 -830 0 -314 13 -453 60 -604
65 -209 146 -262 412 -273 l132 -6 -1 -246 0 -246 -70 -60 c-88 -75 -259 -260
-351 -379 -116 -150 -201 -307 -242 -446 -51 -171 -169 -1180 -276 -2345 -27
-295 -110 -1268 -110 -1287 0 -5 -1080 -8 -2400 -8 l-2400 0 0 38 c0 20 -27
642 -60 1382 -32 739 -58 1346 -56 1347 1 1 187 -212 414 -475 427 -494 459
-527 573 -573 68 -27 223 -37 300 -19 82 19 187 78 247 140 54 54 94 127 216
393 l35 79 54 -39 c29 -21 238 -166 465 -323 l411 -285 1 -201 c0 -156 4 -211
16 -247 22 -64 91 -139 153 -166 50 -21 52 -21 838 -19 780 3 788 3 788 23 0
20 -8 20 -791 25 l-791 5 -49 30 c-30 19 -60 49 -79 79 l-30 49 -5 676 c-5
668 -5 676 -25 676 -20 0 -20 -8 -25 -432 l-5 -433 -420 293 c-231 160 -434
302 -452 314 l-31 23 120 257 c66 142 211 461 323 708 459 1020 666 1444 894
1830 47 79 54 140 23 187 -10 15 -81 75 -157 134 -138 105 -140 107 -138 143
2 20 17 161 33 314 23 209 28 282 20 298 -16 29 -58 43 -89 29 -14 -6 -156
-164 -315 -351 l-290 -340 -111 111 c-120 119 -149 136 -212 118 -60 -16 -103
-67 -103 -120 0 -13 49 -178 108 -365 l109 -342 -370 -728 c-203 -400 -388
-766 -412 -812 l-42 -85 -374 500 c-206 274 -399 534 -429 578 -206 299 -520
526 -848 612 -112 29 -279 54 -370 54 -68 0 -115 18 -132 49 -5 11 -10 51 -10
89 l0 70 178 5 c254 6 307 27 369 144 71 133 107 309 123 602 10 193 1 555
-20 756 -5 49 -8 90 -7 91 1 0 47 6 103 12 109 12 210 40 262 72 31 19 32 21
18 48 -8 15 -56 79 -107 142 -310 387 -611 623 -881 691 -110 28 -395 36 -509
14z m160 -829 c307 -84 669 -146 851 -146 l47 0 7 -57 c31 -295 32 -856 2
-1048 -30 -186 -76 -316 -134 -378 -49 -52 -98 -60 -422 -64 -162 -3 -299 -9
-304 -13 -5 -6 -4 -15 4 -25 10 -11 34 -15 106 -15 l94 0 0 -47 c1 -104 30
-167 90 -198 14 -7 72 -15 130 -19 110 -7 209 -20 273 -37 43 -11 46 -28 23
-116 -99 -372 -514 -623 -991 -600 -274 13 -494 107 -676 287 -79 79 -103 109
-137 180 -42 86 -72 182 -72 232 0 20 6 29 23 33 40 9 201 25 257 25 74 0 119
25 148 80 22 44 22 50 22 426 l0 381 39 -10 c54 -15 105 1 109 32 4 23 2 24
-40 18 -120 -17 -212 103 -225 294 -11 154 64 299 155 299 73 0 136 -61 175
-171 18 -49 28 -64 42 -64 29 0 29 26 0 99 l-26 66 61 68 c119 131 208 313
225 462 4 33 9 60 13 60 3 0 62 -15 131 -34z m7976 -121 c32 -9 60 -17 62 -19
2 -1 -2 -40 -8 -85 -16 -134 12 -323 75 -496 l23 -64 -34 -33 c-19 -18 -41
-45 -49 -59 -12 -24 -11 -29 2 -40 14 -11 22 -6 62 40 50 58 125 101 178 101
44 0 128 -45 159 -86 65 -86 95 -212 77 -328 -27 -173 -136 -316 -241 -316
-45 0 -64 -12 -59 -36 4 -21 48 -25 101 -11 l27 7 0 -420 c0 -477 2 -465 -82
-533 -253 -205 -835 -276 -951 -116 -17 24 -19 46 -17 304 0 154 2 281 5 283
2 2 94 10 205 17 208 12 239 21 206 53 -11 11 -39 12 -152 3 -431 -33 -620
-22 -715 42 -87 59 -142 255 -159 572 -9 162 1 487 20 685 19 191 53 468 59
478 4 7 27 6 66 -4 203 -47 361 -40 655 31 102 24 196 46 210 49 46 9 214 -3
275 -19z m-3825 -749 c0 -19 -13 -154 -30 -301 -16 -147 -30 -279 -30 -293 1
-23 24 -44 146 -137 81 -60 152 -118 160 -129 26 -38 15 -72 -71 -217 -171
-289 -389 -738 -805 -1659 -232 -513 -418 -917 -461 -1002 l-24 -47 -194 135
c-106 74 -201 134 -210 132 -46 -9 -16 -39 170 -169 106 -74 197 -137 203
-141 11 -8 -128 -321 -179 -403 -40 -64 -112 -127 -181 -160 -152 -72 -340
-55 -470 44 -27 20 -221 236 -431 480 l-383 444 17 27 c93 144 459 690 464
690 6 0 403 -474 437 -521 10 -15 9 -25 -4 -59 -14 -35 -15 -44 -3 -55 8 -8
19 -11 26 -7 6 4 55 109 108 232 88 206 885 1798 1010 2018 43 77 46 85 31
100 -20 21 -28 13 -77 -74 l-37 -67 -60 189 c-149 468 -145 451 -131 476 18
34 40 47 79 48 32 0 46 -11 156 -125 66 -69 125 -125 131 -125 5 0 146 160
313 355 167 195 309 355 317 355 8 0 13 -12 13 -34z m-5303 -1251 c48 -300
322 -563 688 -660 123 -33 344 -45 475 -26 172 26 337 88 470 177 84 56 211
188 259 267 40 68 91 209 91 255 0 39 7 40 96 6 110 -41 274 -130 365 -199
106 -79 257 -236 328 -340 30 -44 135 -186 232 -316 l177 -236 -351 -527 -351
-527 -40 40 c-23 21 -47 37 -54 34 -8 -3 -12 -29 -12 -80 0 -79 105 -2512 116
-2690 l6 -103 -1627 0 -1628 0 6 37 c3 21 49 373 103 783 53 410 98 746 99
747 1 2 404 38 896 81 l894 79 215 110 c135 69 230 125 256 149 39 38 42 45
88 225 l48 186 94 47 c197 101 244 220 107 273 -61 23 -253 23 -397 -1 -54 -9
-100 -15 -102 -13 -2 1 19 67 47 146 27 78 49 151 49 162 0 25 -55 59 -95 59
-52 0 -88 -30 -270 -222 -97 -104 -184 -188 -193 -188 -10 0 -338 -20 -731
-45 -392 -25 -714 -45 -715 -45 -1 0 22 172 51 383 52 378 57 438 38 444 -24
7 -35 -19 -47 -112 l-13 -100 -453 -3 c-248 -1 -452 1 -452 6 0 4 29 173 65
376 70 400 98 504 181 667 181 361 500 629 884 743 47 14 87 25 90 25 3 1 11
-33 17 -74z m9771 -269 c207 -104 454 -288 574 -429 166 -194 273 -406 312
-619 20 -109 76 -978 76 -1185 l0 -72 -37 -10 c-169 -45 -1003 -47 -1169 -2
-34 9 -33 7 -54 316 -6 99 -14 188 -16 198 -5 17 -39 24 -48 9 -3 -5 1 -87 9
-183 55 -675 58 -1461 9 -2354 -8 -154 -17 -290 -20 -302 l-4 -23 -1005 0
-1005 0 5 43 c3 23 21 233 41 467 88 1073 188 2066 270 2675 42 321 58 407 90
498 69 194 260 456 498 686 l97 93 20 -40 c39 -79 140 -121 314 -129 260 -13
592 89 738 226 60 56 87 107 94 177 l6 53 48 -19 c26 -11 97 -44 157 -74z
m-10478 -1529 c0 -2 -14 -133 -30 -292 -16 -159 -30 -290 -30 -291 0 -2 -15
-4 -32 -6 -25 -2 -34 -8 -36 -25 -3 -20 1 -23 31 -23 18 0 461 27 983 60 l949
61 120 127 c253 269 260 275 294 275 17 0 34 -3 38 -7 4 -4 -18 -84 -50 -179
-37 -112 -53 -175 -47 -181 6 -6 49 -4 122 8 289 46 468 34 468 -32 0 -51
-176 -153 -347 -201 -116 -33 -123 -37 -123 -57 0 -25 26 -26 101 -5 40 11 74
19 76 17 2 -2 -4 -35 -14 -75 l-17 -71 -128 -41 c-105 -33 -128 -43 -128 -59
0 -32 17 -33 103 -5 45 15 94 30 108 35 l27 8 -15 -56 c-8 -32 -21 -67 -28
-79 -8 -11 -114 -73 -241 -138 l-226 -117 -952 -84 c-523 -46 -1053 -95 -1178
-108 -126 -14 -243 -23 -260 -19 -57 10 -140 55 -183 97 -51 52 -84 118 -97
199 -10 58 -3 100 91 642 56 319 104 590 106 603 l5 22 270 0 c149 0 270 -1
270 -3z m10348 -857 c42 -6 215 -13 385 -17 l307 -6 0 -423 0 -423 -107 -3
c-100 -3 -108 -4 -108 -23 0 -20 8 -20 326 -23 l326 -2 6 -183 c4 -100 10
-404 13 -674 l7 -493 -666 0 -667 0 0 28 c0 15 7 131 15 257 28 465 38 881 32
1425 -3 294 -9 546 -13 559 -7 23 -6 24 30 17 20 -4 72 -11 114 -16z"/>
<path d="M3217 6753 c-4 -3 -7 -14 -7 -23 0 -14 14 -18 88 -23 103 -7 136 -17
180 -60 29 -28 34 -30 48 -15 32 32 -22 84 -115 112 -54 16 -182 22 -194 9z"/>
<path d="M2735 6741 c-77 -20 -180 -96 -169 -125 8 -21 38 -20 55 0 30 37 113
74 165 74 39 0 53 4 58 17 4 9 3 20 -2 25 -13 13 -73 18 -107 9z"/>
<path d="M2042 6477 c-47 -49 -62 -124 -42 -198 14 -48 36 -68 55 -48 12 12
12 21 -2 62 -19 57 -8 107 33 156 41 49 0 75 -44 28z"/>
<path d="M2792 6484 c-16 -11 -22 -25 -22 -54 0 -29 6 -43 22 -54 30 -21 44
-20 68 4 27 27 26 74 -2 100 -26 24 -37 25 -66 4z"/>
<path d="M3372 6483 c-35 -30 -38 -68 -8 -97 32 -33 49 -33 75 0 27 35 26 59
-4 89 -29 30 -36 30 -63 8z"/>
<path d="M3073 6453 c-22 -8 -15 -26 50 -134 59 -99 97 -188 97 -230 0 -14 -7
-19 -27 -20 -125 -3 -128 -4 -128 -23 0 -44 153 -48 187 -6 43 53 0 183 -123
372 -26 40 -36 48 -56 41z"/>
<path d="M2673 5824 c-8 -22 48 -76 114 -110 99 -50 298 -42 298 12 0 21 0 21
-116 8 -85 -8 -150 12 -212 67 -48 41 -74 49 -84 23z"/>
<path d="M9607 6585 c-49 -18 -97 -53 -97 -70 0 -27 23 -27 77 0 72 37 137 43
194 18 50 -22 69 -20 69 8 0 48 -155 76 -243 44z"/>
<path d="M10253 6573 c-30 -10 -43 -20 -43 -33 0 -28 10 -30 70 -14 103 27
176 14 242 -41 28 -23 33 -25 46 -11 13 13 13 17 -1 39 -9 14 -40 36 -68 51
-44 21 -66 26 -128 25 -42 0 -95 -7 -118 -16z"/>
<path d="M9642 6404 c-34 -23 -27 -83 11 -104 24 -13 30 -13 55 0 37 21 44 81
10 104 -12 9 -29 16 -38 16 -9 0 -26 -7 -38 -16z"/>
<path d="M10210 6370 c-11 -11 -20 -29 -20 -40 0 -25 42 -70 65 -70 23 0 65
45 65 70 0 28 -35 60 -65 60 -14 0 -34 -9 -45 -20z"/>
<path d="M9930 6257 c-40 -85 -70 -188 -70 -242 0 -47 40 -116 80 -137 48 -26
125 -21 125 7 0 16 -9 21 -50 27 -69 10 -95 41 -95 112 0 63 22 140 61 218 35
69 37 98 8 98 -16 0 -29 -18 -59 -83z"/>
<path d="M11003 6164 c-3 -8 4 -25 18 -40 27 -29 38 -125 21 -188 -13 -45 -7
-66 19 -66 13 0 21 11 28 38 29 113 22 186 -25 242 -28 33 -51 39 -61 14z"/>
<path d="M10241 5540 c-28 -26 -68 -56 -89 -66 -55 -26 -134 -30 -188 -9 -82
31 -107 -11 -26 -48 68 -31 151 -29 224 5 65 30 158 112 158 138 0 35 -28 28
-79 -20z"/>
<path d="M8103 7859 c-86 -42 -113 -148 -58 -231 26 -38 26 -43 13 -67 -9 -14
-120 -215 -248 -446 -128 -231 -236 -423 -239 -427 -3 -4 -25 -2 -49 4 -54 14
-121 -10 -156 -55 l-25 -31 -88 35 c-48 20 -395 163 -770 319 -656 273 -683
285 -683 310 0 36 -40 110 -72 133 -38 28 -116 34 -162 12 -57 -27 -81 -69
-81 -140 0 -33 2 -65 5 -72 3 -7 -171 -176 -393 -381 l-398 -370 -48 20 c-83
35 -167 3 -203 -79 -63 -142 87 -278 222 -202 65 37 97 123 70 193 -9 24 11
44 389 395 l399 370 38 -20 c21 -10 52 -19 68 -19 38 0 113 36 127 61 5 10 15
19 22 19 7 -1 356 -144 777 -319 l765 -318 6 -34 c18 -114 149 -178 239 -116
75 50 97 121 62 200 l-21 47 255 457 255 458 57 0 c44 0 65 5 90 23 96 69 84
225 -22 273 -53 24 -91 24 -143 -2z"/>
<path d="M11973 7450 c-44 -18 -56 -73 -23 -108 26 -28 73 -29 100 -2 51 51
-9 137 -77 110z"/>
<path d="M522 6156 c-90 -29 -154 -103 -172 -195 -12 -67 -2 -83 49 -79 35 3
36 5 43 50 17 121 144 183 258 126 59 -30 90 -77 90 -137 0 -63 -24 -98 -118
-169 -91 -70 -112 -107 -112 -202 0 -55 2 -60 25 -66 14 -3 36 -3 50 0 23 6
25 11 25 62 0 64 17 103 57 129 50 33 125 109 144 147 62 121 8 264 -120 321
-58 25 -162 31 -219 13z"/>
<path d="M582 5408 c-22 -11 -39 -49 -33 -78 9 -48 82 -68 114 -32 17 19 22
68 9 88 -8 13 -47 34 -59 33 -4 0 -18 -5 -31 -11z"/>
<path d="M7558 2494 c-3 -47 -3 -47 -48 -58 -93 -24 -149 -75 -171 -157 -23
-85 9 -154 95 -204 22 -13 97 -40 166 -60 138 -40 181 -62 198 -100 23 -50 15
-85 -30 -130 -93 -93 -248 -79 -370 33 -26 24 -28 24 -53 8 -42 -27 -41 -44 1
-88 43 -44 114 -84 171 -96 37 -8 38 -9 43 -57 l5 -50 40 0 40 0 5 50 c5 48 6
49 43 57 38 8 99 37 127 60 63 52 97 146 79 214 -25 91 -82 131 -264 183 -172
50 -214 83 -201 153 13 69 106 118 198 104 39 -6 106 -39 164 -81 19 -14 23
-14 47 6 15 11 27 26 27 34 0 33 -144 125 -197 125 -19 0 -22 6 -25 48 l-3 47
-42 3 -42 3 -3 -47z"/>
</g>
</svg>
